<?xml version="1.0" standalone="no"?>
<!DOCTYPE svg PUBLIC "-//W3C//DTD SVG 1.1//EN" "http://www.w3.org/Graphics/SVG/1.1/DTD/svg11.dtd" >
<svg xmlns="http://www.w3.org/2000/svg">
<metadata></metadata>
<defs>
<font id="Meta-NormalNormal" horiz-adv-x="1024" >
<font-face units-per-em="2048" ascent="1638" descent="-410" />
<missing-glyph horiz-adv-x="681" />
<glyph horiz-adv-x="0" />
<glyph horiz-adv-x="2048" />
<glyph unicode="&#xd;" horiz-adv-x="681" />
<glyph unicode=" "  horiz-adv-x="681" />
<glyph unicode="&#x09;" horiz-adv-x="681" />
<glyph unicode="&#xa0;" horiz-adv-x="681" />
<glyph unicode="!" horiz-adv-x="544" d="M145 111.5q0 52.5 36 89.5t88 37t89 -36t37 -88t-36.5 -90t-88 -38t-88.5 36.5t-37 89zM168 1405l201 27l-39 -1026h-123z" />
<glyph unicode="&#x22;" horiz-adv-x="1062" d="M307 958v492h148v-492h-148zM608 958v492h148v-492h-148z" />
<glyph unicode="#" horiz-adv-x="1138" d="M61 436v135h222l41 312h-201v135h221l62 432h137l-62 -432h258l62 432h137l-61 -432h200v-135h-219l-43 -312h201v-135h-221l-62 -436h-137l61 436h-258l-61 -436h-137l61 436h-201zM420 571h258l43 312h-258z" />
<glyph unicode="$" horiz-adv-x="1134" d="M70 100l73 131q170 -121 359 -120v551l-51 16q-184 55 -250 125q-88 94 -88 243.5t106.5 258t282.5 127.5v172h121v-170q197 -16 368 -134l-73 -120q-164 106 -295 116v-489l67 -21q174 -55 248 -141q92 -104 92 -248q0 -205 -194 -338q-94 -61 -213 -79v-199h-121v192 q-225 0 -432 127zM295 1073q0 -86 48 -137t159 -92v448q-98 -16 -152.5 -74.5t-54.5 -144.5zM623 119q68 10 120 53q100 76 101 201q0 172 -221 250v-504z" />
<glyph unicode="%" horiz-adv-x="1701" d="M70 1067q0 164 87 256t250.5 92t251.5 -117q70 -88 70 -258.5t-121 -261.5q-84 -63 -223.5 -63t-227 94t-87.5 258zM209 1068q0 -120 45 -181q49 -59 152 -60q186 0 186 220q0 112 -35 178q-49 78 -157.5 78t-149.5 -57.5t-41 -177.5zM453 0l682 1395h135l-682 -1395 h-135zM983 332q0 164 87 256t251 92t252 -117q70 -88 69.5 -259t-120.5 -261q-84 -63 -223.5 -63t-227.5 94t-88 258zM1122 333q0 -120 45 -181q49 -59 152 -60q189 0 186 219q0 112 -35 178q-49 78 -157 78t-149.5 -57t-41.5 -177z" />
<glyph unicode="&#x26;" horiz-adv-x="1427" d="M160 348q0 117 67 203q31 42 86 77q69 42 133 77q-198 173 -198 313.5t108.5 232.5t255.5 92q78 0 157 -27.5t128 -70.5q92 -86 92 -217q0 -80 -45 -150.5t-131 -119.5l-117 -68l324 -321q29 44 39 161l2 148l141 4q0 -141 -14 -237.5t-62 -186.5l258 -256h-213l-135 131 q-61 -76 -169.5 -120t-212.5 -44q-233 0 -363.5 101.5t-130.5 277.5zM336 336q0 -145 135 -209q68 -33 167 -33t184 38t126 93l-405 396q-207 -98 -207 -285zM420 1056.5q0 -65.5 26.5 -115.5t157.5 -163q147 70 189 154q20 45 20 114.5t-55.5 125t-142.5 55.5t-152 -62 q-43 -43 -43 -108.5z" />
<glyph unicode="'" horiz-adv-x="569" d="M211 958v492h147v-492h-147z" />
<glyph unicode="(" horiz-adv-x="655" d="M199 657q0 463 194 705q123 154 283 215l39 -78q-115 -68 -189.5 -153.5t-118.5 -244t-45 -439.5q0 -449 123 -668q84 -145 236 -230l-45 -81q-129 49 -232.5 159.5t-162.5 261.5q-82 213 -82 553z" />
<glyph unicode=")" horiz-adv-x="659" d="M-61 1499l45 82q129 -49 232 -159.5t163 -262.5q82 -213 82 -553q0 -463 -195 -704q-123 -154 -282 -215l-39 77q115 68 189.5 154t118.5 244.5t44 439.5q0 449 -123 668q-84 145 -235 229z" />
<glyph unicode="*" horiz-adv-x="909" d="M63 1124l39 119l291 -98v305h123v-305l291 98l39 -119l-289 -98l182 -244l-100 -77l-184 251l-179 -251l-102 77l178 244z" />
<glyph unicode="+" d="M74 438v148h364v364h148v-364h364v-148h-364v-364h-148v364h-364z" />
<glyph unicode="," horiz-adv-x="546" d="M117 -203q121 59 137 183q-10 -2 -23 -3q-47 0 -79.5 39t-32.5 96.5t42 100.5t107.5 43t110.5 -55.5t45 -156t-78 -196.5q-55 -71 -172 -141z" />
<glyph unicode="-" horiz-adv-x="618" d="M117 469v156h391v-156h-391z" />
<glyph unicode="." horiz-adv-x="544" d="M135 114q0 58 39 97t97 39t98.5 -39t40.5 -96.5t-40 -99.5t-96.5 -42t-97.5 41.5t-41 99.5z" />
<glyph unicode="/" horiz-adv-x="546" d="M-59 -303l530 1853h135l-530 -1853h-135z" />
<glyph unicode="0" horiz-adv-x="1095" d="M94 505q0 251 124 394t338 143t335 -144t121 -395t-124 -394.5t-338 -143.5t-335 144.5t-121 395.5zM262 535q0 -229 69.5 -333t225.5 -104q287 0 287 375q0 229 -69.5 332.5t-225.5 103.5q-287 1 -287 -374z" />
<glyph unicode="1" horiz-adv-x="827" d="M98 801l351 237h124v-909h189v-129h-539v129h189v715q-76 -49 -279 -131z" />
<glyph unicode="2" horiz-adv-x="1095" d="M127 870q219 190 430 191q162 0 264.5 -79t102.5 -217t-108.5 -253t-305.5 -256l-184 -133q98 8 211 8h434l-33 -131h-782v129q84 61 143 111l162 135q195 160 225 213q47 82 47 161.5t-56 126t-161 46.5q-152 0 -323 -134z" />
<glyph unicode="3" horiz-adv-x="1095" d="M102 885q49 45 129 88q149 80 308 81t269 -92.5t110 -240.5q0 -109 -67 -189.5t-181 -113.5q96 -24 157 -72q127 -100 127 -241.5t-93 -246.5t-220 -165q-152 -66 -383 -66q-61 0 -100 6l-37 109q39 -6 129 -6t178 16q133 25 240 123q68 61 90 143q16 43 16 113 t-46 132.5t-118 84t-254 21.5h-20v114h18q162 2 205 7q106 12 153 92q31 53 31 118q0 100 -67.5 161t-173.5 61t-201 -45l-127 -76z" />
<glyph unicode="4" horiz-adv-x="1095" d="M86 10v127l471 922h178l-391 -766l-90 -162q41 6 80 6h362v60q0 70 9 184l20 287l127 39v-412l-2 -160q37 4 68 4h100v-129h-113l-55 2q2 -33 2 -59v-303l-158 -47v327l2 82q-55 -2 -82 -2h-528z" />
<glyph unicode="5" horiz-adv-x="1095" d="M139 -240q63 -29 154 -28q186 0 314 108.5t128 249.5t-81 211t-232.5 70t-251.5 -45l66 690h606l-25 -135h-436l-35 -398q88 10 139 11q184 0 305 -102.5t121 -287.5q0 -217 -173 -352t-419 -135q-76 0 -151 21z" />
<glyph unicode="6" horiz-adv-x="1095" d="M100 522q0 310 197 539q217 256 553 356l39 -102q-160 -49 -289 -146.5t-193.5 -198.5t-101.5 -261q51 49 133 77.5t166 28.5q160 0 284 -108.5t124 -296.5t-129 -316.5t-330 -128.5t-327 152.5t-126 404.5zM289 479q0 -195 72.5 -292t197.5 -97t196.5 86t71.5 227.5 t-71.5 215t-197.5 73.5t-263 -108q-6 -47 -6 -105z" />
<glyph unicode="7" horiz-adv-x="1095" d="M111 879l39 135h851l-38 -162q-94 -133 -179.5 -264t-187.5 -328q-172 -332 -225 -588l-197 -51q48 267 269 671.5t397 590.5q-117 -4 -189 -4h-540z" />
<glyph unicode="8" horiz-adv-x="1095" d="M90 330.5q0 150.5 85 239.5t204 135q-115 53 -178.5 136t-63.5 181q0 154 115 247t304 93t298 -86t109 -225q0 -176 -195 -289q-57 -31 -82 -41l109 -49q213 -96 213 -303q0 -166 -128 -285t-330 -119t-331 107.5t-129 258zM254 350q0 -117 83 -190.5t214 -73.5t210 67.5 t79 172t-52 158.5t-309 171q-113 -61 -169 -124.5t-56 -180.5zM292.5 1038.5q-0.5 -94.5 78.5 -161t200 -107.5q236 125 236 268q0 94 -69.5 150.5t-187.5 56.5t-187.5 -56t-70 -150.5z" />
<glyph unicode="9" horiz-adv-x="1095" d="M61 -326q104 14 197 58q383 174 506 518q-49 -35 -123 -60.5t-139 -25.5q-178 0 -294 121t-116 311.5t132 322.5t323.5 132t316.5 -136.5t125 -363.5q0 -172 -68.5 -344t-193.5 -315.5t-338 -239.5q-125 -57 -246 -76zM270 596q0 -145 67.5 -227t196.5 -82t263 112 q16 78 16 150q0 168 -74.5 271.5t-196.5 103.5t-197 -91.5t-75 -236.5z" />
<glyph unicode=":" horiz-adv-x="618" d="M174 114q0 58 40 98t97 40t97.5 -40t40.5 -97.5t-40 -98.5t-98.5 -41t-97.5 40.5t-39 98.5zM174 759q0 58 41 99t97 41t96.5 -40t40.5 -97t-40 -98t-97.5 -41t-97.5 39t-40 97z" />
<glyph unicode=";" horiz-adv-x="620" d="M160 -203q121 59 139 183q-12 -2 -23 -3q-47 0 -79.5 39t-32.5 96.5t42 100.5t107.5 43t110.5 -55.5t45 -154t-78 -198.5q-59 -72 -174 -141zM162 763q0 56 40 95t97 39t98 -40t41 -97t-40 -98t-97 -41t-98 43t-41 99z" />
<glyph unicode="&#x3c;" horiz-adv-x="643" d="M27 614l391 527l135 -88l-328 -439l328 -438l-135 -88z" />
<glyph unicode="=" horiz-adv-x="1363" d="M147 393v135h1070v-135h-1070zM147 713v135h1070v-135h-1070z" />
<glyph unicode="&#x3e;" horiz-adv-x="643" d="M78 176l328 438l-328 439l135 88l393 -527l-393 -526z" />
<glyph unicode="?" horiz-adv-x="731" d="M18 1303q158 121 377 120q141 0 228.5 -81.5t87.5 -219.5q0 -126 -97 -231q-35 -38 -75.5 -68t-42.5 -32q-141 -113 -90 -336h-138q-63 260 97 411q20 18 61 49t62 51q61 58 61 141t-52.5 130t-131.5 47q-122 0 -279 -94zM213 112.5q0 57.5 40 97.5t97.5 40t98 -40 t40.5 -98t-39.5 -99.5t-97 -41.5t-98.5 42t-41 99.5z" />
<glyph unicode="@" horiz-adv-x="1638" d="M90 724q0 318 224.5 540.5t526.5 222.5t504.5 -178.5t202.5 -448.5q0 -127 -48 -240.5t-119.5 -188.5t-154.5 -119t-147.5 -44t-101.5 35t-39 100h-4q-117 -135 -251 -135t-214 91.5t-80 226.5q0 225 135 402t342 177q166 0 228 -168h4l37 129h133l-172 -579 q-18 -59 -19 -103q0 -41 49 -41q100 0 193.5 140.5t93.5 306.5q0 231 -167 378.5t-390 147.5q-264 0 -447.5 -192.5t-183.5 -461.5t187.5 -458.5t443.5 -189.5q152 0 292 67.5t224 180.5h129q-98 -166 -271 -262.5t-374 -96.5q-322 0 -544 221.5t-222 539.5zM537 600 q0 -84 51 -140.5t127 -56.5q125 0 221 147.5t96 287.5q0 78 -50 135t-116 57q-135 0 -232 -141.5t-97 -288.5z" />
<glyph unicode="A" horiz-adv-x="1169" d="M8 0l469 1405h219l465 -1405h-190l-133 432h-525l-135 -432h-170zM360 569h435l-215 688l-70 -206z" />
<glyph unicode="B" horiz-adv-x="1208" d="M188 0v1405h203q205 0 284 -6q209 -16 309 -151q65 -89 65 -196.5t-65.5 -187.5t-186.5 -119q129 -33 186 -77.5t91 -121.5t34 -177.5t-66.5 -199.5t-171.5 -136q-57 -23 -110 -28t-209 -5h-363zM350 137h281q129 0 186 31t86 101.5t29 146t-47 145.5t-119 85.5 t-168 15.5h-248v-525zM350 801h244q113 0 164 24.5t78 86.5q27 60 27 129q0 71 -45 133q-44 60 -116 77q-47 13 -153 13h-199v-463z" />
<glyph unicode="C" horiz-adv-x="1097" d="M102 695q0 316 168 522t422 206q205 0 355 -114l-91 -109q-121 88 -266 88q-242 0 -346 -241q-59 -137 -59 -347t48 -330t148.5 -185.5t236.5 -65.5t263 90l90 -117q-176 -115 -391 -115q-256 0 -417 201t-161 517z" />
<glyph unicode="D" horiz-adv-x="1280" d="M184 0v1393h281q174 0 263 -19.5t187 -89.5q238 -170 238 -590q0 -344 -160 -520q-92 -102 -184 -138t-258 -36h-367zM352 139h150q109 0 172 11q137 23 203 135q94 154 94 389q0 164 -26.5 268.5t-93.5 184t-138.5 104t-192.5 24.5h-168v-1116z" />
<glyph unicode="E" horiz-adv-x="1060" d="M188 0v1395h768l-22 -140h-576v-454h482v-146h-482v-510h619v-145h-789z" />
<glyph unicode="F" horiz-adv-x="952" d="M184 0v1399h740l-27 -139h-543v-455h451v-137h-451v-668h-170z" />
<glyph unicode="G" horiz-adv-x="1243" d="M111 694q0 399 217 590q147 133 368 133t383 -139l-75 -104q-159 108 -303 108h-3q-266 0 -350 -238q-55 -156 -55 -356q0 -283 98 -426q47 -68 142.5 -108.5t213 -40.5t207.5 55v428h-282l-33 139h473v-655q-164 -106 -414 -106q0 -1 -1 -1q-248 0 -417 183 q-169 182 -169 538z" />
<glyph unicode="H" horiz-adv-x="1284" d="M178 0v1405h164v-588h592v588h168v-1405h-168v680h-592v-680h-164z" />
<glyph unicode="I" horiz-adv-x="548" d="M193 0v1405h163v-1405h-163z" />
<glyph unicode="J" horiz-adv-x="546" d="M-4 -158q123 49 168 138q35 61 35 256v1169h168v-1165q0 -76 -5 -161q-17 -250 -284 -341z" />
<glyph unicode="K" horiz-adv-x="1169" d="M170 0v1405h170v-1405h-170zM348 743l541 662h215l-565 -660l561 -745h-215z" />
<glyph unicode="L" horiz-adv-x="952" d="M184 0v1405h168v-1264h555l-22 -141h-701z" />
<glyph unicode="M" horiz-adv-x="1574" d="M135 0l123 1405h246l256 -918q37 -135 55 -245q23 115 51 229l264 934h248l121 -1405h-168l-82 1030l-10 240q-23 -113 -55 -221l-301 -1049h-144l-278 997q-55 205 -70 275q-10 -186 -16 -273l-78 -999h-162z" />
<glyph unicode="N" horiz-adv-x="1280" d="M174 0v1401h195l467 -895l131 -293q-16 242 -19 426l-6 762h166v-1401h-176l-451 858q-123 238 -159 336q16 -180 18 -381l8 -813h-174z" />
<glyph unicode="O" horiz-adv-x="1353" d="M117 693.5q0 349.5 149.5 543t409.5 193.5q289 0 442 -230q127 -188 127 -520q0 -203 -48 -338t-157 -233q-150 -135 -356 -136q-244 0 -405.5 185.5t-161.5 535zM303 743q0 -336 90 -489q39 -66 125 -109t174 -43q170 0 262 121q103 130 103 438q0 301 -68 441 q-41 86 -119.5 139t-185 53t-188.5 -44t-121 -120q-72 -135 -72 -387z" />
<glyph unicode="P" horiz-adv-x="1171" d="M190 0v1405h390q207 0 307 -66q180 -119 180 -331.5t-131 -337.5q-59 -57 -132 -84t-204 -27h-246v-559h-164zM354 696h236q86 0 134 17.5t85 58.5q72 80 72 216.5t-82.5 206t-266.5 69.5h-178v-568z" />
<glyph unicode="Q" horiz-adv-x="1353" d="M113 695q0 350 148.5 542.5t408.5 192.5q295 0 442 -230q129 -203 129 -520q0 -203 -49 -338q-69 -191 -248 -301q37 -12 162 -82.5t200 -70.5q3 -1 6 -1q69 0 93 11l-55 -134q-36 -18 -120 -18h-5q-88 1 -264 107q-66 41 -93 55q-74 39 -204 65q-231 0 -383 179 q-168 193 -168 543zM297 743q0 -332 92 -489q39 -68 123 -110t176 -42q166 0 265 128q100 129 100 432q0 296 -70 440q-92 192 -311 192h-2q-98 0 -179 -44t-120 -120q-74 -133 -74 -387z" />
<glyph unicode="R" horiz-adv-x="1169" d="M186 0v1403h328q244 0 354 -90q140 -113 139 -293q1 -178 -101 -282q-102 -106 -271 -105h-21q63 -51 110 -116q61 -83 146 -206l209 -311h-211q-39 88 -148.5 255t-209.5 288q-41 53 -72.5 70.5t-83.5 19.5v-633h-168zM356 737h150q182 0 254 72q71 65 71 207 q0 74 -38.5 134t-103.5 86t-171 26h-162v-525z" />
<glyph unicode="S" horiz-adv-x="1134" d="M70 100l73 131q167 -120 374 -120h3q141 0 232 68.5t92 193.5q0 186 -252 262l-141 43q-184 55 -250 125q-88 94 -88 229q0 180 124.5 292t338.5 112t415 -136l-73 -120q-102 66 -177 92t-186 26t-185.5 -61t-74.5 -157.5t54 -149.5t179 -92l162 -52q174 -55 248 -141 q92 -104 92 -248q0 -205 -194 -338q-133 -86 -316 -86q-246 0 -450 127z" />
<glyph unicode="T" horiz-adv-x="1026" d="M47 1264v141h930l-10 -141h-381v-1264h-162v1264h-377z" />
<glyph unicode="U" horiz-adv-x="1247" d="M162 424v981h166v-899q0 -147 14 -215q39 -172 285 -172q182 0 247 88q33 43 43.5 91t10.5 148v959h166v-977q0 -152 -21.5 -219.5t-85.5 -124.5q-127 -109 -369 -109q-315 0 -415 203q-25 49 -33 92t-8 154z" />
<glyph unicode="V" horiz-adv-x="1173" d="M31 1405h182l297 -901q63 -190 82 -314q25 100 86 293l301 922h172l-481 -1405h-166z" />
<glyph unicode="W" horiz-adv-x="1675" d="M49 1405h180l179 -821q25 -121 75 -428q29 172 80 407l187 842h190l182 -815q72 -313 84 -434q29 195 82 434l174 815h168l-321 -1405h-219l-175 780q-49 219 -73 400q-25 -162 -72 -387l-172 -793h-217z" />
<glyph unicode="X" horiz-adv-x="1099" d="M14 0l416 754l-373 651h199l281 -520l268 520h196l-352 -639l443 -766h-203l-348 645l-330 -645h-197z" />
<glyph unicode="Y" horiz-adv-x="1099" d="M12 1405h207l266 -537q45 -92 72 -157q20 47 76 157l270 537h193l-457 -858v-547h-174v557z" />
<glyph unicode="Z" horiz-adv-x="991" d="M51 0v129l600 987q59 98 90 135q-39 -2 -145 -2h-524l47 142h801v-144l-584 -971q-25 -41 -86 -135q49 2 121 2h557l-43 -143h-834z" />
<glyph unicode="[" horiz-adv-x="530" d="M57 -319v1818h338v-123h-190v-1573h190v-122h-338z" />
<glyph unicode="\" horiz-adv-x="757" d="M6 1487l129 49l617 -1573l-129 -51z" />
<glyph unicode="]" horiz-adv-x="530" d="M135 -197h191v1573h-191v123h338v-1818h-338v122z" />
<glyph unicode="^" horiz-adv-x="1363" d="M164 563l457 887h122l457 -887h-151l-367 715l-367 -715h-151z" />
<glyph unicode="_" d="M0 -154h1024v-102h-1024v102z" />
<glyph unicode="`" horiz-adv-x="692" d="M80 1362l88 158l424 -267l-53 -96z" />
<glyph unicode="a" d="M88 264q0 174 142.5 270.5t398.5 96.5q37 0 71 -2v71q0 123 -32 160q-49 55 -140 55q-169 0 -323 -120l-80 114q207 137 426 137q1 0 1 1q218 0 284 -160q22 -53 22 -164v-10v-51l-8 -336q-2 -14 -2 -77.5t17.5 -106t66.5 -66.5l-82 -115q-111 35 -139 150 q-74 -74 -141.5 -106t-153.5 -32q-158 0 -243 79t-85 212zM266 279q0 -186 176 -187q78 0 145.5 44t102.5 116l6 266q-70 4 -80 4q-215 0 -292 -82q-57 -59 -58 -161z" />
<glyph unicode="b" horiz-adv-x="1134" d="M131 1464l174 35q27 -115 27 -254v-227q0 -88 -4 -113q139 137 307 137t274.5 -139t106.5 -382t-111.5 -394.5t-294.5 -151.5q-78 0 -157.5 39t-122.5 97q-8 -66 -29 -111h-160q31 68 31 254v969q0 159 -41 241zM330 240q41 -53 110.5 -88t132 -35t114.5 25.5t79 64.5 q72 109 72 315t-60 287q-61 88 -192 88q-95 0 -185 -63q-41 -29 -71 -70v-524z" />
<glyph unicode="c" horiz-adv-x="878" d="M115 494q0 285 153 434q119 119 270.5 119t284.5 -111l-88 -111q-59 49 -99 65.5t-97 16.5t-110.5 -31.5t-80.5 -82.5q-57 -106 -57 -306q0 -383 252 -383q127 0 219 111l88 -102q-133 -135 -311 -136q-219 0 -321.5 148.5t-102.5 368.5z" />
<glyph unicode="d" horiz-adv-x="1134" d="M123 502q0 328 211 473q95 65 193 65h3q178 0 277 -131q-2 84 -2 158v428l160 -27v-1138q0 -252 30 -330h-164q-14 41 -22 104q-45 -49 -70 -63q-76 -55 -200 -55q-199 0 -307.5 136t-108.5 380zM299 535q0 -162 17.5 -230.5t69.5 -126.5t160 -58h2q110 0 193 66 q39 29 62 74v541q-76 106 -248 106q-125 0 -190.5 -105t-65.5 -267z" />
<glyph unicode="e" d="M100 516q0 250 123 391t301 141q1 0 2 1q177 0 279 -113q66 -68 89.5 -157t27.5 -273v-23h-637v-24q0 -152 47 -223q82 -125 240.5 -125t263.5 96l61 -103q-139 -127 -347 -127t-329 144.5t-121 394.5zM285 604h467q-2 156 -47 227q-58 91 -185 91q-223 0 -235 -318z" />
<glyph unicode="f" horiz-adv-x="587" d="M106 891v121h99v168q0 164 112 250q71 53 192 53q1 0 2 -1q122 0 212 -59l-59 -112q-82 47 -152 47q-139 0 -139 -180v-166h282l-49 -121h-233v-891h-168v891h-99z" />
<glyph unicode="g" horiz-adv-x="1060" d="M106 -121q0 49 21 109l168 14q-28 -56 -29 -92q0 -82 60 -119q80 -47 206 -47q251 0 248 178q0 86 -56 124t-200 38l-157 -4q-90 0 -141.5 39t-51.5 104t39 105q37 37 145 73q-102 33 -165.5 114t-63.5 181q0 154 104.5 249t272.5 95q84 0 147 -22l70 -23 q37 -12 102.5 -12t132.5 45l99 -98q-86 -61 -172 -62q-37 0 -70 13q62 -79 62 -164q0 -81 -31 -151t-80 -111q-84 -74 -209 -74h-22l-23 -8q-162 -59 -162 -109.5t82 -50.5h164q164 0 246 -57q113 -78 112 -215q0 -199 -155 -273q-100 -49 -250 -49q-266 0 -373 100 q-70 68 -70 160zM309 702q0 -202 195 -202h2q184 0 184 205q0 104 -44 152t-144 48q-193 0 -193 -203z" />
<glyph unicode="h" horiz-adv-x="1095" d="M135 1460l160 31q27 -98 27 -236v-237q0 -59 -7 -139q47 45 103 79q123 82 226 82t177 -45t93.5 -108t19.5 -156v-731h-158v705q0 106 -39 151q-41 41 -119 41q-158 0 -296 -172v-725h-160v1257q0 111 -27 203z" />
<glyph unicode="i" horiz-adv-x="509" d="M129 1334q0 52 37 89t89 37t88 -35.5t36 -89t-36 -89.5t-88 -36t-89 36t-37 88zM168 0v1016l170 26v-1042h-170z" />
<glyph unicode="j" horiz-adv-x="512" d="M23 -299q53 27 86 55q49 49 59 121t10 158v977l162 32v-1017q0 -88 -7 -149.5t-36 -113.5q-59 -111 -195 -170zM131 1351q0 52 37 90t88 38t88 -37t37 -89t-37 -89t-88 -37t-88 36t-37 88z" />
<glyph unicode="k" d="M133 1454l160 39q31 -96 33 -295v-1198h-160v1163q-1 148 -33 291zM332 578l389 442h201l-402 -442l494 -578h-213z" />
<glyph unicode="l" horiz-adv-x="509" d="M145 1456l166 33q25 -72 25 -315v-969q0 -59 12 -81t45 -22l21 4l32 -104q-48 -23 -110 -23q0 1 -2 1q-64 0 -112 43t-48 145v1006q0 199 -29 282z" />
<glyph unicode="m" horiz-adv-x="1607" d="M135 1008l156 36q37 -74 37 -143v-8q51 53 134 103t163 51q127 0 202 -103q23 -31 35 -67q74 78 162 124t166 46q113 0 184.5 -78t71.5 -199v-770h-164v754q0 149 -129 149h-2q-74 0 -137.5 -46t-114.5 -95l-18 -17v-745h-162v725q0 68 -4 89.5t-25 41.5q-35 41 -104 41 q-111 0 -260 -135v-762h-154v760q0 104 -6 144t-31 104z" />
<glyph unicode="n" horiz-adv-x="1097" d="M137 1001l156 43q37 -80 37 -159q157 157 319 157h2q82 0 151 -40q124 -74 124 -228v-774h-162v690q0 82 -7 114t-30 56q-37 43 -105.5 43t-151.5 -42t-138 -101v-760h-156v760q0 104 -6 143t-33 98z" />
<glyph unicode="o" horiz-adv-x="1124" d="M123 506q0 250 116.5 393t330.5 143t337 -178q94 -137 94 -379q0 -283 -159 -422q-113 -98 -279 -98q-205 0 -322.5 145.5t-117.5 395.5zM297 505.5q0 -199.5 63 -304.5q29 -47 85.5 -75t121.5 -28q166 0 221 154q31 86 31 259t-39 252.5t-98 113.5t-127 34t-124 -30.5 t-85 -79.5q-49 -96 -49 -295.5z" />
<glyph unicode="p" horiz-adv-x="1134" d="M147 1018l166 29q10 -51 11 -129v-27q127 150 296 150l1 -1q170 0 279.5 -133t109.5 -372.5t-82 -374.5q-115 -186 -316 -187q-166 0 -280 119v-487l-160 -31v1198q0 172 -25 246zM332 240q117 -133 250 -134q70 0 129 35t86 92q43 92 43 277t-47 274q-25 51 -76 82 t-113 31q-153 0 -272 -143v-514z" />
<glyph unicode="q" horiz-adv-x="1134" d="M125 479q0 162 21.5 249t74.5 159q119 164 291 164l1 -1q173 0 302 -143q6 78 23 115h157q-12 -20 -22 -104t-10 -177v-1124l-154 -33v531q-115 -133 -287 -133q-137 0 -233 81q-164 137 -164 416zM295 516q0 -152 25 -224q59 -173 232 -174h1q172 0 256 158v486 q-41 66 -113.5 105.5t-146.5 39.5q-254 0 -254 -391z" />
<glyph unicode="r" horiz-adv-x="657" d="M141 1004l160 43q35 -76 35 -152v-14q55 78 132 124t155 46l55 -11l-66 -174q-27 8 -45 8q-96 0 -170 -73q-35 -35 -47 -68t-12 -94v-639h-160v778q0 141 -37 226z" />
<glyph unicode="s" horiz-adv-x="913" d="M59 74l62 119q158 -96 323 -97q94 0 150.5 47t56.5 129q0 133 -168 168l-127 27q-127 29 -192.5 103.5t-65.5 177.5q0 137 101.5 225t265.5 88t307 -82l-59 -119q-154 74 -249 74t-147.5 -46t-52.5 -111.5t30 -102.5t118 -56l135 -28q272 -61 272 -285 q0 -150 -106.5 -242t-296 -92t-357.5 103z" />
<glyph unicode="t" horiz-adv-x="659" d="M55 897v125h133v12q0 68 15 213l2 27l166 37q-21 -154 -21 -289h258l-49 -125h-215v-655q0 -86 28.5 -119t96 -33t109.5 21l22 -103q-78 -41 -165 -41t-148 29q-98 47 -99 203v698h-133z" />
<glyph unicode="u" horiz-adv-x="1097" d="M174 262v750l158 30v-733q0 -76 12 -110.5t58 -65.5t119 -31t144.5 51.5t112.5 133.5v723l158 26v-723q0 -143 25 -190q12 -27 45 -57l-103 -109q-92 76 -110 164q-117 -156 -324 -156q-96 0 -168 38t-100 108q-27 55 -27 151z" />
<glyph unicode="v" horiz-adv-x="987" d="M41 1012l164 35l237 -703q35 -113 50 -174h4q14 72 49 172l231 674l170 2l-381 -1028h-157z" />
<glyph unicode="w" horiz-adv-x="1427" d="M45 1012l160 35l164 -674l37 -170h6q14 74 34 147l185 676h170l180 -684q35 -135 41 -149h4q2 2 15.5 67.5t15.5 73.5l162 684h167l-288 -1026h-152l-237 829h-4q-12 -72 -23 -104l-205 -725h-149z" />
<glyph unicode="x" horiz-adv-x="915" d="M-6 0l381 565l-314 451h197l201 -336l194 336h187l-301 -451l391 -565h-195l-276 434l-277 -434h-188z" />
<glyph unicode="y" horiz-adv-x="948" d="M33 997l157 54l209 -662l62 -254h4l264 883h182l-350 -1055q-70 -207 -162 -295q-68 -66 -168 -88l-47 109q33 6 74 32.5t70 59.5q53 66 92 221l-66 -10q-26 145 -102 366z" />
<glyph unicode="z" horiz-adv-x="878" d="M63 0v123l555 768h-512v127h680v-131l-530 -764h563l-76 -123h-680z" />
<glyph unicode="{" horiz-adv-x="681" d="M68 528v123q68 0 122 65.5t54 166.5v360q0 117 67.5 186.5t147.5 69.5h143v-123h-110q-100 0 -101 -162v-360q0 -121 -59.5 -184.5t-116.5 -77.5v-4q57 -8 116.5 -69.5t59.5 -194.5v-359q0 -162 101 -162h110v-122h-143q-84 0 -149.5 69.5t-65.5 186.5v358 q0 104 -53.5 168.5t-122.5 64.5z" />
<glyph unicode="|" horiz-adv-x="454" d="M160 -37v1585h135v-1585h-135z" />
<glyph unicode="}" horiz-adv-x="681" d="M80 -197h110q100 0 101 162v359q0 133 59.5 194.5t116.5 69.5v4q-57 14 -116.5 77.5t-59.5 184.5v360q0 162 -101 162h-110v123h143q80 0 147.5 -69.5t67.5 -186.5v-360q0 -100 54.5 -166t121.5 -66v-123q-70 0 -123 -64.5t-53 -168.5v-358q0 -117 -65.5 -186.5 t-149.5 -69.5h-143v122z" />
<glyph unicode="~" horiz-adv-x="1363" d="M211 578q41 57 66.5 87.5t78 61.5t119 31t201.5 -62q142 -78 240.5 -77.5t168.5 143.5l68 -98q-43 -59 -68.5 -88t-78 -61t-119 -32t-201.5 62q-142 78 -241.5 78t-165.5 -144z" />
<glyph unicode="&#xa1;" horiz-adv-x="544" d="M156 1299q0 52 36.5 90t88 38t88.5 -36.5t37 -89t-37 -89t-88.5 -36.5t-88 35.5t-36.5 87.5zM182 -18l39 1026h123l39 -1000z" />
<glyph unicode="&#xa2;" horiz-adv-x="878" d="M115 494q0 285 153 434q100 100 219 114v158h113v-158q109 -14 223 -106l-88 -111q-80 66 -135 76v-790q94 20 162 104l88 -102q-113 -117 -250 -131v-156h-113v154q-178 16 -274 151q-98 143 -98 363zM291 459q-1 -309 196 -350v792q-96 -27 -139 -108 q-57 -106 -57 -334z" />
<glyph unicode="&#xa3;" horiz-adv-x="1138" d="M117 0v160h221v516h-197v135h197v164q0 254 120 377t320.5 123t327.5 -127l-113 -121q-104 100 -234 100q-249 0 -249 -356v-160h332v-135h-332v-516h504v-160h-897z" />
<glyph unicode="&#xa4;" horiz-adv-x="915" d="M109 178l88 133q-76 92 -76 247t82 247l-90 129l139 82l78 -129q55 16 120 16t121 -20l76 133l131 -82l-84 -127l17 -21q70 -88 69.5 -241.5t-71.5 -233.5l92 -133l-131 -84l-84 129q-55 -20 -130 -20t-137 22l-83 -131zM260 556q0 -120 45 -181q49 -59 152 -60 q186 0 186 220q0 112 -35 178q-49 78 -157.5 78t-149.5 -57.5t-41 -177.5z" />
<glyph unicode="&#xa5;" horiz-adv-x="1099" d="M12 1405h207l266 -537q45 -92 72 -157q20 47 76 157l270 537h193l-340 -639h305v-121h-369l-53 -98v-98h422v-121h-422v-328h-174v328h-397v121h397v108l-47 88h-350v121h284z" />
<glyph unicode="&#xa6;" horiz-adv-x="454" d="M160 -37v660h135v-660h-135zM160 868v680h135v-680h-135z" />
<glyph unicode="&#xa7;" horiz-adv-x="1138" d="M115 -43l157 74q53 -178 258 -178q94 0 158 47t64 141q0 113 -151 178q-28 12 -54 27l-250 131q-150 78 -150 257t207 279q-158 90 -157.5 244t117 242t254.5 88q290 0 380 -193l-153 -84q-23 63 -81.5 96t-138 33t-143 -45t-63.5 -138t90 -140l200 -101 q235 -111 287 -219q25 -53 25 -118q0 -174 -176 -273q141 -92 141 -255t-124 -254t-278 -91q-320 0 -419 252zM307 653q0 -37 14.5 -67.5t44.5 -53.5q42 -32 117 -69l183 -88q53 23 93 73t40 98t-17.5 82t-51.5 62q-58 47 -130 80l-119 59q-130 -51 -159 -110 q-15 -29 -15 -66z" />
<glyph unicode="&#xa8;" d="M186 1271q0 44 31 74.5t75 30.5t74.5 -30.5t30.5 -74.5t-29.5 -76t-74.5 -32t-76 32t-31 76zM608 1271q0 44 31 74.5t75 30.5t75.5 -30.5t31.5 -74.5t-30.5 -76t-74.5 -32t-76 32t-32 76z" />
<glyph unicode="&#xa9;" horiz-adv-x="1638" d="M57 725q0 322 223.5 542t537.5 220t538.5 -220t224.5 -542t-224 -542t-538.5 -220t-538 220t-223.5 542zM193 725q0 -276 181 -463.5t444 -187.5t445.5 188.5t182.5 462.5t-182.5 462.5t-445.5 188.5t-444 -187.5t-181 -463.5zM395 727q0 205 121 334t328 129 q150 0 255 -81t128 -228h-125q-16 86 -87 142t-169 56q-147 0 -231.5 -99t-84.5 -250.5t89.5 -256t230.5 -104.5q100 0 169 59.5t83 149.5h127q-33 -147 -135.5 -233.5t-243.5 -86.5q-205 0 -330 132t-125 337z" />
<glyph unicode="&#xaa;" horiz-adv-x="802" d="M78 492v110h641v-110h-641zM90.5 994q-0.5 116 105 188.5t298.5 72.5q29 0 53 -2v52q0 90 -25 116q-35 41 -98 41q-116 0 -246 -92l-61 94q159 105 325 105t217 -123q16 -47 17 -133v-37l-6 -252q-2 -8 -2 -55.5t13 -79t50 -51.5l-65 -90q-84 27 -107 110 q-87 -100 -214 -100t-190.5 60t-64 176zM223 991q0 -141 133 -141q57 0 107.5 33t79.5 88l4 198q-27 4 -60 5q-160 0 -221 -62q-43 -47 -43 -121z" />
<glyph unicode="&#xab;" d="M119 492l293 438l112 -74l-239 -364l239 -365l-112 -74zM500 492l293 438l112 -74l-239 -364l239 -365l-112 -74z" />
<glyph unicode="&#xad;" horiz-adv-x="618" d="M117 469v156h391v-156h-391z" />
<glyph unicode="&#xae;" horiz-adv-x="1638" d="M57 725q0 322 223.5 542t537.5 220t538.5 -220t224.5 -542t-224 -542t-538.5 -220t-538 220t-223.5 542zM193 725q0 -276 181 -463.5t444 -187.5t445.5 188.5t182.5 462.5t-182.5 462.5t-445.5 188.5t-444 -187.5t-181 -463.5zM528 281v890h336q311 0 312 -253 q0 -219 -236 -244l256 -393h-145l-242 383h-145v-383h-136zM664 774h139q181 0 219 66q18 32 18 84q0 82 -55 109.5t-143 27.5h-178v-287z" />
<glyph unicode="&#xaf;" horiz-adv-x="823" d="M123 1399v110h561v-110h-561z" />
<glyph unicode="&#xb0;" horiz-adv-x="798" d="M70 1067q0 164 87 256t250.5 92t251.5 -117q70 -88 70 -258.5t-121 -261.5q-84 -63 -223.5 -63t-227 94t-87.5 258zM209 1068q0 -120 45 -181q49 -59 152 -60q186 0 186 220q0 112 -35 178q-49 78 -157.5 78t-149.5 -57.5t-41 -177.5z" />
<glyph unicode="&#xb4;" horiz-adv-x="692" d="M100 1253l424 267l88 -158l-458 -205z" />
<glyph unicode="&#xb6;" horiz-adv-x="1228" d="M170 1028q0 199 125 310.5t342 111.5h498v-1708h-148v1573h-242v-1573h-147v905q-186 0 -307 109.5t-121 271.5z" />
<glyph unicode="&#xb7;" horiz-adv-x="546" d="M139 572q0 56 39 95.5t94.5 39.5t95.5 -39t40 -95.5t-39 -96.5t-94.5 -40t-95.5 40t-40 96z" />
<glyph unicode="&#xb8;" horiz-adv-x="878" d="M287 -354l43 96q72 -33 113 -33t63 16.5t22 45t-23.5 44t-53.5 15.5l-78 -4l53 199l121 -15l-25 -96q133 -18 133 -147q0 -66 -54 -118t-139 -52t-175 49z" />
<glyph unicode="&#xba;" horiz-adv-x="802" d="M68 1158q0 187 87 294t248.5 107t251.5 -132q72 -104 72 -300.5t-121 -301.5q-82 -74 -221.5 -73.5t-228 110t-88.5 296.5zM78 492v110h641v-110h-641zM209 1152q0 -146 45 -210q45 -76 154.5 -76t150.5 111q20 63 20.5 187.5t-32.5 187.5q-45 94 -152.5 94t-146.5 -74 t-39 -220z" />
<glyph unicode="&#xbb;" d="M119 127l239 365l-239 364l112 74l293 -438l-293 -439zM500 127l239 365l-239 364l112 74l293 -438l-293 -439z" />
<glyph unicode="&#xbf;" horiz-adv-x="681" d="M63 276q0 127 97 232q31 35 74 66.5t45 33.5q141 113 90 336h137q63 -260 -96 -412q-20 -18 -61.5 -48.5t-62.5 -51.5q-61 -57 -61 -140t52.5 -130t132.5 -47q121 0 278 94l68 -113q-158 -121 -377 -121q-141 0 -228.5 82t-87.5 219zM285 1287q0 58 40 99t97 41t98 -42 t41 -99t-40 -97t-97 -40t-98 40t-41 98z" />
<glyph unicode="&#xc0;" horiz-adv-x="1169" d="M8 0l469 1405h219l465 -1405h-190l-133 432h-525l-135 -432h-170zM252 1690l88 157l424 -266l-53 -96zM360 569h435l-215 688l-70 -206z" />
<glyph unicode="&#xc1;" horiz-adv-x="1169" d="M8 0l469 1405h219l465 -1405h-190l-133 432h-525l-135 -432h-170zM360 569h435l-215 688l-70 -206zM408 1581l423 266l89 -157l-459 -205z" />
<glyph unicode="&#xc2;" horiz-adv-x="1169" d="M8 0l469 1405h219l465 -1405h-190l-133 432h-525l-135 -432h-170zM238 1567l348 276l350 -276l-74 -90l-284 174l-277 -174zM360 569h435l-215 688l-70 -206z" />
<glyph unicode="&#xc3;" horiz-adv-x="1169" d="M8 0l469 1405h219l465 -1405h-190l-133 432h-525l-135 -432h-170zM213 1630q55 70 107.5 99.5t127 29.5t143 -38t121 -38t82 19.5t68.5 60.5l58 -92q-55 -68 -108.5 -98.5t-128 -30.5t-143.5 38t-121 38t-80 -18.5t-69 -61.5zM360 569h435l-215 688l-70 -206z" />
<glyph unicode="&#xc4;" horiz-adv-x="1169" d="M8 0l469 1405h219l465 -1405h-190l-133 432h-525l-135 -432h-170zM268 1598q0 44 31 75t75 31t74.5 -31t30.5 -75t-29.5 -75.5t-74.5 -31.5t-76 31.5t-31 75.5zM360 569h435l-215 688l-70 -206zM690 1598q0 44 31 75t75 31t75.5 -31t31.5 -75t-30.5 -75.5t-74.5 -31.5 t-76 31.5t-32 75.5z" />
<glyph unicode="&#xc5;" horiz-adv-x="1169" d="M8 0l469 1405h219l465 -1405h-190l-133 432h-525l-135 -432h-170zM360 569h435l-215 688l-70 -206zM369 1676q0 89 64.5 153.5t152.5 64.5t150.5 -63.5t62.5 -152.5t-63.5 -153.5t-152.5 -64.5t-151.5 63.5t-62.5 152.5zM461 1677q0 -49 37 -86t85 -37t85 37t37 86 t-35 86t-84 37t-87 -37t-38 -86z" />
<glyph unicode="&#xc6;" horiz-adv-x="1884" d="M39 0l868 1395h832l-23 -140h-575v-454h481v-146h-481v-510h618v-145h-788v432h-484l-266 -432h-182zM571 569h400v666z" />
<glyph unicode="&#xc7;" horiz-adv-x="1097" d="M98 714.5q0 296.5 168 502.5t422 206q205 0 354 -114l-90 -109q-121 88 -266 88q-242 0 -346 -241q-59 -137 -59 -347t48 -330t148.5 -185.5t236 -65.5t263.5 90l90 -117q-176 -115 -391 -115l-14 -63q133 -18 133 -147q0 -66 -54.5 -118t-139.5 -52t-175 49l43 96 q72 -33 113 -33t63.5 16.5t22.5 45t-23.5 44t-51.5 15.5t-56 -4l-19 20l39 144q-209 45 -334 236.5t-125 488z" />
<glyph unicode="&#xc8;" horiz-adv-x="1060" d="M188 0v1395h768l-22 -140h-576v-454h482v-146h-482v-510h619v-145h-789zM295 1690l88 157l424 -266l-53 -96z" />
<glyph unicode="&#xc9;" horiz-adv-x="1060" d="M188 0v1395h768l-22 -140h-576v-454h482v-146h-482v-510h619v-145h-789zM356 1581l424 266l88 -157l-458 -205z" />
<glyph unicode="&#xca;" horiz-adv-x="1060" d="M188 0v1395h768l-22 -140h-576v-454h482v-146h-482v-510h619v-145h-789zM238 1567l348 276l350 -276l-74 -90l-284 174l-277 -174z" />
<glyph unicode="&#xcb;" horiz-adv-x="1060" d="M188 0v1395h768l-22 -140h-576v-454h482v-146h-482v-510h619v-145h-789zM268 1598q0 44 31 75t75 31t74.5 -31t30.5 -75t-29.5 -75.5t-74.5 -31.5t-76 31.5t-31 75.5zM690 1598q0 44 31 75t75 31t75.5 -31t31.5 -75t-30.5 -75.5t-74.5 -31.5t-76 31.5t-32 75.5z" />
<glyph unicode="&#xcc;" horiz-adv-x="548" d="M-49 1690l88 157l424 -266l-53 -96zM193 0v1405h163v-1405h-163z" />
<glyph unicode="&#xcd;" horiz-adv-x="548" d="M111 1581l424 266l88 -157l-459 -205zM193 0v1405h163v-1405h-163z" />
<glyph unicode="&#xce;" horiz-adv-x="548" d="M-57 1567l348 276l350 -276l-74 -90l-284 174l-277 -174zM193 0v1405h163v-1405h-163z" />
<glyph unicode="&#xcf;" horiz-adv-x="548" d="M-39 1598q0 44 31 75t75 31t74.5 -31t30.5 -75t-29.5 -75.5t-74.5 -31.5t-76 31.5t-31 75.5zM193 0v1405h163v-1405h-163zM383 1598q0 44 30.5 75t74.5 31t76 -31t32 -75t-30.5 -75.5t-74.5 -31.5t-76 31.5t-32 75.5z" />
<glyph unicode="&#xd1;" horiz-adv-x="1277" d="M174 0v1401h195l467 -895l131 -293q-16 242 -19 426l-6 762h166v-1401h-176l-451 858q-123 238 -159 336q16 -180 18 -381l8 -813h-174zM293 1630q55 70 107.5 99.5t127 29.5t143 -38t121 -38t82 19.5t68.5 60.5l57 -92q-55 -68 -108 -98.5t-127.5 -30.5t-143.5 38 t-121 38t-80 -18.5t-69 -61.5z" />
<glyph unicode="&#xd2;" horiz-adv-x="1353" d="M117 693.5q0 349.5 149.5 543t409.5 193.5q289 0 442 -230q127 -188 127 -520q0 -203 -48 -338t-157 -233q-150 -135 -356 -136q-244 0 -405.5 185.5t-161.5 535zM303 743q0 -336 90 -489q39 -66 125 -109t174 -43q170 0 262 121q102 129 102.5 433.5t-67.5 445.5 q-41 86 -119.5 139t-185 53t-188.5 -44t-121 -120q-72 -135 -72 -387zM381 1690l88 157l424 -266l-53 -96z" />
<glyph unicode="&#xd3;" horiz-adv-x="1353" d="M117 693.5q0 349.5 149.5 543t409.5 193.5q289 0 442 -230q127 -188 127 -520q0 -203 -48 -338t-157 -233q-150 -135 -356 -136q-244 0 -405.5 185.5t-161.5 535zM303 743q0 -336 90 -489q39 -66 125 -109t174 -43q170 0 262 121q102 129 102.5 433.5t-67.5 445.5 q-41 86 -119.5 139t-185 53t-188.5 -44t-121 -120q-72 -135 -72 -387zM510 1581l424 266l88 -157l-459 -205z" />
<glyph unicode="&#xd4;" horiz-adv-x="1353" d="M117 693.5q0 349.5 149.5 543t409.5 193.5q289 0 442 -230q127 -188 127 -520q0 -203 -48 -338t-157 -233q-150 -135 -356 -136q-244 0 -405.5 185.5t-161.5 535zM303 743q0 -336 90 -489q39 -66 125 -109t174 -43q170 0 262 121q102 129 102.5 433.5t-67.5 445.5 q-41 86 -119.5 139t-185 53t-188.5 -44t-121 -120q-72 -135 -72 -387zM379 1567l348 276l350 -276l-73 -90l-285 174l-277 -174z" />
<glyph unicode="&#xd5;" horiz-adv-x="1353" d="M117 693.5q0 349.5 149.5 543t409.5 193.5q289 0 442 -230q127 -188 127 -520q0 -203 -48 -338t-157 -233q-150 -135 -356 -136q-244 0 -405.5 185.5t-161.5 535zM303 743q0 -336 90 -489q39 -66 125 -109t174 -43q170 0 262 121q102 129 102.5 433.5t-67.5 445.5 q-41 86 -119.5 139t-185 53t-188.5 -44t-121 -120q-72 -135 -72 -387zM373 1630q55 70 107 99.5t126.5 29.5t143.5 -38t121.5 -38t82 19.5t68.5 60.5l57 -92q-55 -68 -108 -98.5t-128 -30.5t-143.5 38t-121 38t-80 -18.5t-68.5 -61.5z" />
<glyph unicode="&#xd6;" horiz-adv-x="1353" d="M117 693.5q0 349.5 149.5 543t409.5 193.5q289 0 442 -230q127 -188 127 -520q0 -203 -48 -338t-157 -233q-150 -135 -356 -136q-244 0 -405.5 185.5t-161.5 535zM303 743q0 -336 90 -489q39 -66 125 -109t174 -43q170 0 262 121q102 129 102.5 433.5t-67.5 445.5 q-41 86 -119.5 139t-185 53t-188.5 -44t-121 -120q-72 -135 -72 -387zM391 1598q0 44 31 75t75 31t74.5 -31t30.5 -75t-29.5 -75.5t-74.5 -31.5t-76 31.5t-31 75.5zM813 1598q0 44 30.5 75t75 31t76 -31t31.5 -75t-30.5 -75.5t-74.5 -31.5t-76 31.5t-32 75.5z" />
<glyph unicode="&#xd7;" d="M150 254l258 258l-258 258l104 104l258 -258l258 258l104 -104l-258 -258l258 -258l-104 -104l-258 258l-258 -258z" />
<glyph unicode="&#xd8;" horiz-adv-x="1353" d="M117 694q0 349 149.5 542.5t409.5 193.5q180 0 317 -97l131 219l109 -65l-146 -244q158 -202 158 -563q0 -203 -48 -338t-157 -233q-150 -135 -340 -135.5t-321 92.5l-139 -232l-107 66l152 252q-168 193 -168 542zM303 731q0 -264 68 -434l544 907q-96 90 -239 90 q-98 0 -180 -44t-121 -120q-72 -135 -72 -399zM453 186q104 -84 239 -84q170 0 262 121q102 129 102 424.5t-61 442.5z" />
<glyph unicode="&#xd9;" horiz-adv-x="1247" d="M162 424v981h166v-899q0 -147 14 -215q39 -172 285 -172q182 0 247 88q33 43 43.5 91t10.5 148v959h166v-977q0 -152 -21.5 -219.5t-85.5 -124.5q-127 -109 -369 -109q-315 0 -415 203q-25 49 -33 92t-8 154zM332 1690l88 157l424 -266l-53 -96z" />
<glyph unicode="&#xda;" horiz-adv-x="1247" d="M162 424v981h166v-899q0 -147 14 -215q39 -172 285 -172q182 0 247 88q33 43 43.5 91t10.5 148v959h166v-977q0 -152 -21.5 -219.5t-85.5 -124.5q-127 -109 -369 -109q-315 0 -415 203q-25 49 -33 92t-8 154zM408 1581l423 266l89 -157l-459 -205z" />
<glyph unicode="&#xdb;" horiz-adv-x="1247" d="M162 424v981h166v-899q0 -147 14 -215q39 -172 285 -172q182 0 247 88q33 43 43.5 91t10.5 148v959h166v-977q0 -152 -21.5 -219.5t-85.5 -124.5q-127 -109 -369 -109q-315 0 -415 203q-25 49 -33 92t-8 154zM274 1567l349 276l350 -276l-74 -90l-285 174l-276 -174z" />
<glyph unicode="&#xdc;" horiz-adv-x="1247" d="M162 424v981h166v-899q0 -147 14 -215q39 -172 285 -172q182 0 247 88q33 43 43.5 91t10.5 148v959h166v-977q0 -152 -21.5 -219.5t-85.5 -124.5q-127 -109 -369 -109q-315 0 -415 203q-25 49 -33 92t-8 154zM309 1598q0 44 31 75t75 31t74.5 -31t30.5 -75t-29.5 -75.5 t-74.5 -31.5t-76 31.5t-31 75.5zM731 1598q0 44 31 75t75 31t75.5 -31t31.5 -75t-30.5 -75.5t-74.5 -31.5t-76 31.5t-32 75.5z" />
<glyph unicode="&#xdf;" horiz-adv-x="1171" d="M29 897v121l149 -8v45q0 172 84 266q104 125 301 125q158 0 262.5 -89t104.5 -220t-101 -203q-57 -45 -178 -84q-35 -12 -35 -30.5t32 -38t125 -64.5t148.5 -78t94.5 -110.5t39 -172.5q0 -193 -156 -311q-98 -70 -228 -70t-204 37l47 107q76 -27 133 -27q102 0 170 73 t68 193.5t-88 184.5q-45 31 -158 91.5t-138 95t-25.5 75.5t22.5 69q31 43 119 85.5t115.5 80t27.5 112.5t-57.5 125t-151.5 50q-215 0 -215 -283v-26l10 -811q0 -129 -24 -207h-154q18 74 18 240l-6 659z" />
<glyph unicode="&#xe0;" d="M88 264q0 174 142.5 270.5t398.5 96.5q37 0 71 -2v71q0 123 -32 160q-49 55 -140 55q-169 0 -323 -120l-80 114q207 137 426 137.5t285 -159.5q23 -55 22 -174v-51l-8 -336q-2 -14 -2 -77.5t17.5 -106t66.5 -66.5l-82 -115q-111 35 -139 150q-74 -74 -141.5 -106 t-153.5 -32q-158 0 -243 79t-85 212zM215 1362l88 158l424 -267l-53 -96zM266 279q0 -186 176 -187q78 0 145.5 44t102.5 116l6 266q-70 4 -80 4q-215 0 -292 -82q-57 -59 -58 -161z" />
<glyph unicode="&#xe1;" d="M88 264q0 174 142.5 270.5t398.5 96.5q37 0 71 -2v71q0 123 -32 160q-49 55 -140 55q-169 0 -323 -120l-80 114q207 137 426 137.5t285 -159.5q23 -55 22 -174v-51l-8 -336q-2 -14 -2 -77.5t17.5 -106t66.5 -66.5l-82 -115q-111 35 -139 150q-74 -74 -141.5 -106 t-153.5 -32q-158 0 -243 79t-85 212zM266 279q0 -186 176 -187q78 0 145.5 44t102.5 116l6 266q-70 4 -80 4q-215 0 -292 -82q-57 -59 -58 -161zM285 1253l424 267l88 -158l-459 -205z" />
<glyph unicode="&#xe2;" d="M88 264q0 174 142.5 270.5t398.5 96.5q37 0 71 -2v71q0 123 -32 160q-49 55 -140 55q-169 0 -323 -120l-80 114q207 137 426 137.5t285 -159.5q23 -55 22 -174v-51l-8 -336q-2 -14 -2 -77.5t17.5 -106t66.5 -66.5l-82 -115q-111 35 -139 150q-74 -74 -141.5 -106 t-153.5 -32q-158 0 -243 79t-85 212zM139 1239l348 277l351 -277l-74 -90l-285 174l-276 -174zM266 279q0 -186 176 -187q78 0 145.5 44t102.5 116l6 266q-70 4 -80 4q-215 0 -292 -82q-57 -59 -58 -161z" />
<glyph unicode="&#xe3;" d="M88 264q0 174 142.5 270.5t398.5 96.5q37 0 71 -2v71q0 123 -32 160q-49 55 -140 55q-169 0 -323 -120l-80 114q207 137 426 137.5t285 -159.5q23 -55 22 -174v-51l-8 -336q-2 -14 -2 -77.5t17.5 -106t66.5 -66.5l-82 -115q-111 35 -139 150q-74 -74 -141.5 -106 t-153.5 -32q-158 0 -243 79t-85 212zM133 1303q55 70 107.5 99.5t127 29.5t143.5 -38t121 -38t81.5 19.5t68.5 60.5l58 -93q-55 -68 -108.5 -98.5t-128 -30.5t-143.5 38t-121 38t-80 -18.5t-69 -61.5zM266 279q0 -186 176 -187q78 0 145.5 44t102.5 116l6 266q-70 4 -80 4 q-215 0 -292 -82q-57 -59 -58 -161z" />
<glyph unicode="&#xe4;" d="M88 264q0 174 142.5 270.5t398.5 96.5q37 0 71 -2v71q0 123 -32 160q-49 55 -140 55q-169 0 -323 -120l-80 114q207 137 426 137.5t285 -159.5q23 -55 22 -174v-51l-8 -336q-2 -14 -2 -77.5t17.5 -106t66.5 -66.5l-82 -115q-111 35 -139 150q-74 -74 -141.5 -106 t-153.5 -32q-158 0 -243 79t-85 212zM186 1271q0 44 31 74.5t75 30.5t74.5 -30.5t30.5 -74.5t-29.5 -76t-74.5 -32t-76 32t-31 76zM266 279q0 -186 176 -187q78 0 145.5 44t102.5 116l6 266q-70 4 -80 4q-215 0 -292 -82q-57 -59 -58 -161zM608 1271q0 44 31 74.5t75 30.5 t75.5 -30.5t31.5 -74.5t-30.5 -76t-74.5 -32t-76 32t-32 76z" />
<glyph unicode="&#xe5;" d="M88 264q0 174 142.5 270.5t398.5 96.5q37 0 71 -2v71q0 123 -32 160q-49 55 -140 55q-169 0 -323 -120l-80 114q207 137 426 137.5t285 -159.5q23 -55 22 -174v-51l-8 -336q-2 -14 -2 -77.5t17.5 -106t66.5 -66.5l-82 -115q-111 35 -139 150q-74 -74 -141.5 -106 t-153.5 -32q-158 0 -243 79t-85 212zM266 279q0 -186 176 -187q78 0 145.5 44t102.5 116l6 266q-70 4 -80 4q-215 0 -292 -82q-57 -59 -58 -161zM301 1349q0 89 64.5 153.5t152.5 64.5t150.5 -63.5t62.5 -152.5t-64.5 -153.5t-152.5 -64.5t-150.5 63.5t-62.5 152.5z M393 1349.5q0 -49.5 37 -86t85 -36.5t85 36.5t37 86t-35 86.5t-84 37t-87 -37t-38 -86.5z" />
<glyph unicode="&#xe6;" horiz-adv-x="1581" d="M88 264q0 174 142.5 270.5t398.5 96.5l71 -2v71q0 123 -32 160q-49 55 -140 55q-166 0 -323 -120l-80 114q207 137 428 138q168 0 248 -134q131 135 295.5 135.5t267.5 -112.5q68 -68 92.5 -159t24.5 -271v-23h-637v-24q0 -152 47 -223q82 -125 240.5 -125t263.5 96 l61 -103q-139 -127 -344 -127q-100 0 -174 34t-156 104q-8 6 -12 18t-8 19q-66 -80 -162 -129.5t-184 -49.5q-158 0 -243 79t-85 212zM266 279q0 -186 176 -187q78 0 145.5 44t102.5 116l6 266l-80 4q-215 0 -292 -82q-57 -59 -58 -161zM844 604h467q0 152 -52.5 235 t-179.5 83q-223 0 -235 -318z" />
<glyph unicode="&#xe7;" horiz-adv-x="878" d="M115 494q0 285 153 434q119 119 270.5 119t284.5 -111l-88 -111q-59 49 -99 65.5t-97 16.5t-110.5 -31.5t-80.5 -82.5q-57 -106 -57 -306q0 -383 252 -383q127 0 219 111l88 -102q-133 -135 -311 -136l-17 -63q133 -18 133 -147q0 -66 -54 -118t-139 -52t-175 49l43 96 q72 -33 113 -33t63 16.5t22 45t-23.5 44t-51 15.5t-56.5 -4l-18 20l39 146q-127 31 -205 139q-98 143 -98 363z" />
<glyph unicode="&#xe8;" d="M100 516q0 250 123 391t301 141.5t281 -112.5q66 -68 89.5 -157t27.5 -273v-23h-637v-24q0 -152 47 -223q82 -125 240.5 -125t263.5 96l61 -103q-139 -127 -347 -127t-329 144.5t-121 394.5zM240 1362l88 158l424 -267l-54 -96zM285 604h467q-2 156 -47 227 q-58 91 -185 91q-223 0 -235 -318z" />
<glyph unicode="&#xe9;" d="M100 516q0 250 123 391t301 141.5t281 -112.5q66 -68 89.5 -157t27.5 -273v-23h-637v-24q0 -152 47 -223q82 -125 240.5 -125t263.5 96l61 -103q-139 -127 -347 -127t-329 144.5t-121 394.5zM274 1253l424 267l88 -158l-458 -205zM285 604h467q-2 156 -47 227 q-58 91 -185 91q-223 0 -235 -318z" />
<glyph unicode="&#xea;" d="M100 516q0 250 123 391t301 141.5t281 -112.5q66 -68 89.5 -157t27.5 -273v-23h-637v-24q0 -152 47 -223q82 -125 240.5 -125t263.5 96l61 -103q-139 -127 -347 -127t-329 144.5t-121 394.5zM158 1239l348 277l350 -277l-74 -90l-284 174l-277 -174zM285 604h467 q-2 156 -47 227q-58 91 -185 91q-223 0 -235 -318z" />
<glyph unicode="&#xeb;" d="M100 516q0 250 123 391t301 141.5t281 -112.5q66 -68 89.5 -157t27.5 -273v-23h-637v-24q0 -152 47 -223q82 -125 240.5 -125t263.5 96l61 -103q-139 -127 -347 -127t-329 144.5t-121 394.5zM205 1271q0 44 30.5 74.5t74.5 30.5t75 -30.5t31 -74.5t-30 -76t-75 -32 t-75.5 32t-30.5 76zM285 604h467q-2 156 -47 227q-58 91 -185 91q-223 0 -235 -318zM627 1271q0 44 30.5 74.5t74.5 30.5t76 -30.5t32 -74.5t-31 -76t-75 -32t-75.5 32t-31.5 76z" />
<glyph unicode="&#xec;" horiz-adv-x="509" d="M-74 1362l88 158l424 -267l-53 -96zM166 0v1016l172 26v-1042h-172z" />
<glyph unicode="&#xed;" horiz-adv-x="509" d="M49 1253l424 267l88 -158l-459 -205zM166 0v1016l172 26v-1042h-172z" />
<glyph unicode="&#xee;" horiz-adv-x="509" d="M-100 1239l348 277l350 -277l-74 -90l-284 174l-277 -174zM166 0v1016l172 26v-1042h-172z" />
<glyph unicode="&#xef;" horiz-adv-x="509" d="M-59 1271q0 44 30.5 74.5t74.5 30.5t75 -30.5t31 -74.5t-30 -76t-75 -32t-75.5 32t-30.5 76zM166 0v1016l172 26v-1042h-172zM362 1271q0 44 31 74.5t75 30.5t75.5 -30.5t31.5 -74.5t-30.5 -76t-74.5 -32t-76 32t-32 76z" />
<glyph unicode="&#xf1;" horiz-adv-x="1097" d="M137 1001l156 43q37 -80 37 -159q158 158 321 157q82 0 151 -40q124 -74 124 -228v-774h-162v690q0 82 -7 114t-30 56q-37 43 -105.5 43t-151.5 -42t-138 -101v-760h-156v760q0 104 -6 143t-33 98zM182 1303q55 70 107.5 99.5t127 29.5t143.5 -38t121 -38t81.5 19.5 t68.5 60.5l58 -93q-55 -68 -108.5 -98.5t-128 -30.5t-143.5 38t-121 38t-79.5 -18.5t-68.5 -61.5z" />
<glyph unicode="&#xf2;" horiz-adv-x="1124" d="M123 506q0 250 116.5 393t330.5 143t337 -178q94 -137 94 -379q0 -283 -159 -422q-113 -98 -279 -98q-205 0 -322.5 145.5t-117.5 395.5zM246 1362l88 158l424 -267l-53 -96zM297 505.5q0 -199.5 63 -304.5q29 -47 85.5 -75t121.5 -28q166 0 221 154q31 86 31 259 t-39 252.5t-98 113.5t-127 34t-124 -30.5t-85 -79.5q-49 -96 -49 -295.5z" />
<glyph unicode="&#xf3;" horiz-adv-x="1124" d="M123 506q0 250 116.5 393t330.5 143t337 -178q94 -137 94 -379q0 -283 -159 -422q-113 -98 -279 -98q-205 0 -322.5 145.5t-117.5 395.5zM297 505.5q0 -199.5 63 -304.5q29 -47 85.5 -75t121.5 -28q166 0 221 154q31 86 31 259t-39 252.5t-98 113.5t-127 34t-124 -30.5 t-85 -79.5q-49 -96 -49 -295.5zM336 1253l424 267l88 -158l-459 -205z" />
<glyph unicode="&#xf4;" horiz-adv-x="1124" d="M123 506q0 250 116.5 393t330.5 143t337 -178q94 -137 94 -379q0 -283 -159 -422q-113 -98 -279 -98q-205 0 -322.5 145.5t-117.5 395.5zM201 1239l348 277l350 -277l-74 -90l-284 174l-277 -174zM297 505.5q0 -199.5 63 -304.5q29 -47 85.5 -75t121.5 -28q166 0 221 154 q31 86 31 259t-39 252.5t-98 113.5t-127 34t-124 -30.5t-85 -79.5q-49 -96 -49 -295.5z" />
<glyph unicode="&#xf5;" horiz-adv-x="1124" d="M123 506q0 250 116.5 393t330.5 143t337 -178q94 -137 94 -379q0 -283 -159 -422q-113 -98 -279 -98q-205 0 -322.5 145.5t-117.5 395.5zM195 1303q55 70 107 99.5t126.5 29.5t143.5 -38t121 -38t82 19.5t69 60.5l57 -93q-55 -68 -108.5 -98.5t-128 -30.5t-143 38 t-121 38t-80 -18.5t-68.5 -61.5zM297 505.5q0 -199.5 63 -304.5q29 -47 85.5 -75t121.5 -28q166 0 221 154q31 86 31 259t-39 252.5t-98 113.5t-127 34t-124 -30.5t-85 -79.5q-49 -96 -49 -295.5z" />
<glyph unicode="&#xf6;" horiz-adv-x="1124" d="M123 506q0 250 116.5 393t330.5 143t337 -178q94 -137 94 -379q0 -283 -159 -422q-113 -98 -279 -98q-205 0 -322.5 145.5t-117.5 395.5zM248 1271q0 44 30.5 74.5t74.5 30.5t75 -30.5t31 -74.5t-30 -76t-75 -32t-75.5 32t-30.5 76zM297 505.5q0 -199.5 63 -304.5 q29 -47 85.5 -75t121.5 -28q166 0 221 154q31 86 31 259t-39 252.5t-98 113.5t-127 34t-124 -30.5t-85 -79.5q-49 -96 -49 -295.5zM670 1271q0 44 30.5 74.5t74.5 30.5t76 -30.5t32 -74.5t-31 -76t-75 -32t-75.5 32t-31.5 76z" />
<glyph unicode="&#xf7;" horiz-adv-x="1744" d="M123 891v121h98v168q0 164 113 250q72 53 193.5 53t211.5 -60l-59 -112q-82 47 -152 47q-139 0 -139 -180v-166h404v168q0 164 112 250q72 53 193.5 53t212.5 -60l-60 -112q-82 47 -151 47q-139 0 -139 -180v-166h602v-1012h-170v891h-432v-891h-168v891h-404v-891h-168 v891h-98zM1354 1334q0 52 36.5 89t89 37t88.5 -35.5t36 -89t-36 -89.5t-88 -36t-89 36t-37 88z" />
<glyph unicode="&#xf8;" horiz-adv-x="1124" d="M123 502.5q0 253.5 116.5 396.5t317.5 143q125 0 219 -55l103 170l100 -61l-111 -183q14 -16 39 -49q94 -137 94 -379q0 -283 -159 -422q-113 -98 -262.5 -98t-243.5 62l-98 -162l-99 61l107 178q-123 145 -123 398.5zM297 535q0 -170 39 -281l366 610q-61 47 -138 47 t-133 -30.5t-85 -79.5q-49 -96 -49 -266zM410 150q68 -51 157 -52q166 0 221 154q31 86 31 251t-41 259z" />
<glyph unicode="&#xf9;" horiz-adv-x="1097" d="M174 262v750l158 30v-733q0 -76 12 -110.5t58 -65.5t119 -31t144.5 51.5t112.5 133.5v723l158 26v-723q0 -143 25 -190q12 -27 45 -57l-103 -109q-92 76 -110 164q-117 -156 -324 -156q-96 0 -168 38t-100 108q-27 55 -27 151zM283 1362l88 158l424 -267l-54 -96z" />
<glyph unicode="&#xfa;" horiz-adv-x="1097" d="M174 262v750l158 30v-733q0 -76 12 -110.5t58 -65.5t119 -31t144.5 51.5t112.5 133.5v723l158 26v-723q0 -143 25 -190q12 -27 45 -57l-103 -109q-92 76 -110 164q-117 -156 -324 -156q-96 0 -168 38t-100 108q-27 55 -27 151zM326 1253l424 267l88 -158l-459 -205z" />
<glyph unicode="&#xfb;" horiz-adv-x="1097" d="M174 262v750l158 30v-733q0 -76 12 -110.5t58 -65.5t119 -31t144.5 51.5t112.5 133.5v723l158 26v-723q0 -143 25 -190q12 -27 45 -57l-103 -109q-92 76 -110 164q-117 -156 -324 -156q-96 0 -168 38t-100 108q-27 55 -27 151zM213 1239l348 277l350 -277l-73 -90 l-285 174l-277 -174z" />
<glyph unicode="&#xfc;" horiz-adv-x="1097" d="M174 262v750l158 30v-733q0 -76 12 -110.5t58 -65.5t119 -31t144.5 51.5t112.5 133.5v723l158 26v-723q0 -143 25 -190q12 -27 45 -57l-103 -109q-92 76 -110 164q-117 -156 -324 -156q-96 0 -168 38t-100 108q-27 55 -27 151zM236 1271q0 44 30.5 74.5t74.5 30.5 t74.5 -30.5t30.5 -74.5t-29.5 -76t-74.5 -32t-75.5 32t-30.5 76zM657 1271q0 44 31 74.5t75 30.5t75.5 -30.5t31.5 -74.5t-30.5 -76t-74.5 -32t-76 32t-32 76z" />
<glyph unicode="&#xff;" horiz-adv-x="948" d="M33 997l157 54l209 -662l62 -254h4l264 883h182l-350 -1055q-70 -207 -162 -295q-68 -66 -168 -88l-47 109q33 6 74 32.5t70 59.5q53 66 92 221l-66 -10q-26 145 -102 366zM145 1271q0 44 31 74.5t75 30.5t74.5 -30.5t30.5 -74.5t-29.5 -76t-74.5 -32t-76 32t-31 76z M567 1271q0 44 31 74.5t75 30.5t75.5 -30.5t31.5 -74.5t-30.5 -76t-74.5 -32t-76 32t-32 76z" />
<glyph unicode="&#x152;" horiz-adv-x="1732" d="M84 696q0 344 160 521q92 102 185 140t257 38h967l-23 -140h-575v-454h481v-146h-481v-510h618v-145l-901 -2q-174 0 -263 19.5t-187 88.5q-238 170 -238 590zM266 717q0 -164 26.5 -268.5t94.5 -186.5q108 -127 262 -127t236 12v1090q-111 14 -182.5 14t-139.5 -10 q-137 -23 -203 -135q-94 -154 -94 -389z" />
<glyph unicode="&#x153;" horiz-adv-x="1728" d="M123 506q0 250 116.5 393t330.5 143t331 -174q8 16 27 37q123 143 301 143.5t280 -112.5q68 -68 92.5 -159t24.5 -271v-23h-637v-24q0 -152 47 -223q82 -125 240.5 -125t263.5 96l62 -103q-139 -127 -338 -127t-314 119q-23 23 -35 47q-128 -178 -342.5 -178t-332 145.5 t-117.5 395.5zM297 505.5q0 -199.5 63 -304.5q29 -47 85.5 -75t121.5 -28q166 0 221 154q31 86 31 259t-39 252.5t-98 113.5t-127 34t-124 -30.5t-85 -79.5q-49 -96 -49 -295.5zM989 604h467q-2 156 -47 227q-57 91 -184 91q-223 0 -236 -318z" />
<glyph unicode="&#x178;" horiz-adv-x="1099" d="M12 1405h207l266 -537q45 -92 72 -157q20 47 76 157l270 537h193l-457 -858v-547h-174v557zM227 1598q0 44 31 75t75 31t74.5 -31t30.5 -75t-29.5 -75.5t-74.5 -31.5t-76 31.5t-31 75.5zM649 1598q0 44 31 75t75 31t75.5 -31t31.5 -75t-30.5 -75.5t-74.5 -31.5t-76 31.5 t-32 75.5z" />
<glyph unicode="&#x2c6;" horiz-adv-x="823" d="M59 1239l349 277l350 -277l-74 -90l-285 174l-276 -174z" />
<glyph unicode="&#x2dc;" horiz-adv-x="778" d="M29 1303q55 70 107 99.5t126.5 29.5t143.5 -38t121.5 -38t82 19.5t68.5 60.5l57 -93q-55 -68 -108.5 -98.5t-128 -30.5t-143 38t-121 38t-80 -18.5t-68.5 -61.5z" />
<glyph unicode="&#x2000;" horiz-adv-x="947" />
<glyph unicode="&#x2001;" horiz-adv-x="1894" />
<glyph unicode="&#x2002;" horiz-adv-x="947" />
<glyph unicode="&#x2003;" horiz-adv-x="1894" />
<glyph unicode="&#x2004;" horiz-adv-x="631" />
<glyph unicode="&#x2005;" horiz-adv-x="473" />
<glyph unicode="&#x2006;" horiz-adv-x="315" />
<glyph unicode="&#x2007;" horiz-adv-x="315" />
<glyph unicode="&#x2008;" horiz-adv-x="236" />
<glyph unicode="&#x2009;" horiz-adv-x="378" />
<glyph unicode="&#x200a;" horiz-adv-x="105" />
<glyph unicode="&#x2010;" horiz-adv-x="618" d="M117 469v156h391v-156h-391z" />
<glyph unicode="&#x2011;" horiz-adv-x="618" d="M117 469v156h391v-156h-391z" />
<glyph unicode="&#x2012;" horiz-adv-x="618" d="M117 469v156h391v-156h-391z" />
<glyph unicode="&#x2013;" horiz-adv-x="985" d="M-6 512v121h993v-121h-993z" />
<glyph unicode="&#x2014;" horiz-adv-x="1964" d="M254 512v121h1458v-121h-1458z" />
<glyph unicode="&#x2018;" horiz-adv-x="532" d="M104 1116.5q0 98.5 78 198.5q61 73 174 141l58 -90q-121 -59 -140 -182l23 4q47 0 80 -39t33 -97t-42 -101.5t-108 -43.5t-111 55.5t-45 154z" />
<glyph unicode="&#x2019;" horiz-adv-x="532" d="M98 971q123 59 140 182q-10 -2 -23 -2q-47 0 -80 38t-33 96t42 101.5t108 43.5t111 -55.5t45 -156t-78 -196.5q-53 -69 -174 -141z" />
<glyph unicode="&#x201a;" horiz-adv-x="546" d="M117 -203q121 59 137 183q-10 -2 -23 -3q-47 0 -79.5 39t-32.5 96.5t42 100.5t107.5 43t110.5 -55.5t45 -156t-78 -196.5q-55 -71 -172 -141z" />
<glyph unicode="&#x201c;" horiz-adv-x="933" d="M104 1116.5q0 98.5 78 198.5q61 73 174 141l58 -90q-121 -59 -140 -182l23 4q47 0 80 -39t33 -97t-42 -101.5t-108 -43.5t-111 55.5t-45 154zM508 1116.5q0 98.5 78 198.5q61 73 174 141l57 -90q-121 -59 -139 -182l22 4q47 0 81 -39t34 -97t-43 -101.5t-108.5 -43.5 t-110.5 55.5t-45 154z" />
<glyph unicode="&#x201d;" horiz-adv-x="940" d="M98 971q123 59 140 182q-10 -2 -23 -2q-47 0 -80 38t-33 96t42 101.5t108 43.5t111 -55.5t45 -156t-78 -196.5q-53 -69 -174 -141zM502 971q123 59 139 182q-10 -2 -23 -2q-47 0 -79.5 38t-32.5 96t42 101.5t107.5 43.5t110.5 -55.5t45 -156t-78 -196.5 q-49 -63 -164 -135l-8 -6z" />
<glyph unicode="&#x201e;" horiz-adv-x="944" d="M117 -203q121 59 137 183q-10 -2 -23 -3q-47 0 -79.5 39t-32.5 96.5t42 100.5t107.5 43t110.5 -55.5t45 -156t-78 -196.5q-55 -71 -172 -141zM520 -203q121 59 137 183q-10 -2 -20 -3q-47 0 -81 39t-34 96.5t42 100.5t109 43t111.5 -55.5t44.5 -141.5q0 -201 -251 -352z " />
<glyph unicode="&#x2022;" d="M150 725q0 152 105 257t257 105t257 -105t105 -257t-105 -257.5t-257 -105.5t-257 105.5t-105 257.5z" />
<glyph unicode="&#x2026;" horiz-adv-x="1409" d="M94 114q0 58 39 97t97 39t98.5 -39t40.5 -96.5t-40 -99.5t-96.5 -42t-97.5 41.5t-41 99.5zM565 114q0 58 39 97t97 39t98.5 -39t40.5 -96.5t-40 -99.5t-96 -42t-97.5 41.5t-41.5 99.5zM1036 114q0 58 39 97t97 39t98.5 -39t40.5 -96.5t-40 -99.5t-96 -42t-97.5 41.5 t-41.5 99.5z" />
<glyph unicode="&#x202f;" horiz-adv-x="378" />
<glyph unicode="&#x2039;" horiz-adv-x="643" d="M119 492l293 438l112 -74l-239 -364l239 -365l-112 -74z" />
<glyph unicode="&#x203a;" horiz-adv-x="643" d="M119 127l239 365l-239 364l112 74l293 -438l-293 -439z" />
<glyph unicode="&#x205f;" horiz-adv-x="473" />
<glyph unicode="&#x2122;" horiz-adv-x="2027" d="M131 1315v135h668v-135h-267v-709h-135v709h-266zM969 606v844h215l252 -641l252 641h208v-844h-135v709h-4l-278 -709h-93l-278 709h-4v-709h-135z" />
<glyph unicode="&#xe000;" horiz-adv-x="1013" d="M0 0v1014h1014v-1014h-1014z" />
<glyph unicode="&#xfb01;" horiz-adv-x="1142" d="M94 891v121h99v168q0 164 112 250q72 53 193.5 53t212.5 -60l-60 -112q-82 47 -151 47q-139 0 -140 -180v-166h605l-2 -1012h-170v891h-433v-891h-167v891h-99zM754 1334q0 52 36.5 89t88 37t88.5 -35.5t37 -89t-37 -89.5t-88.5 -36t-88 36t-36.5 88z" />
<glyph unicode="&#xfb02;" horiz-adv-x="1142" d="M106 891v121h99v168q0 164 112 250q72 53 194 52.5t212 -59.5l-59 -112q-82 47 -152 47q-139 0 -139 -180v-166h282l-49 -121h-233v-891h-168v891h-99zM764 1436l166 32q25 -72 24 -315v-969q0 -59 12.5 -80.5t45.5 -21.5l20 4l33 -104q-49 -23 -112.5 -23t-111.5 43 t-48 145v1006q0 199 -29 283z" />
</font>
</defs>
</svg>
