<?xml version="1.0" standalone="no"?>
<!DOCTYPE svg PUBLIC "-//W3C//DTD SVG 1.1//EN" "http://www.w3.org/Graphics/SVG/1.1/DTD/svg11.dtd" >
<svg xmlns="http://www.w3.org/2000/svg">
<metadata></metadata>
<defs>
<font id="MetaItalic" horiz-adv-x="1024" >
<font-face units-per-em="2048" ascent="1638" descent="-410" />
<missing-glyph horiz-adv-x="681" />
<glyph horiz-adv-x="0" />
<glyph horiz-adv-x="2048" />
<glyph unicode="&#xd;" horiz-adv-x="681" />
<glyph unicode=" "  horiz-adv-x="681" />
<glyph unicode="&#x09;" horiz-adv-x="681" />
<glyph unicode="&#xa0;" horiz-adv-x="681" />
<glyph unicode="!" horiz-adv-x="544" d="M68 111.5q0 52.5 35.5 89.5t88 37t89 -36t36.5 -88t-36.5 -90t-88 -38t-88 36.5t-36.5 89zM190 406l175 999l206 27l-258 -1026h-123z" />
<glyph unicode="&#x22;" horiz-adv-x="1062" d="M410 958l104 492h148l-105 -492h-147zM711 958l104 492h148l-105 -492h-147z" />
<glyph unicode="#" horiz-adv-x="1138" d="M51 436l31 135h221l107 312h-201l29 135h221l153 432h138l-154 -432h258l154 432h137l-154 -432h201l-29 -135h-219l-108 -312h200l-30 -135h-222l-153 -436h-137l153 436h-258l-153 -436h-138l154 436h-201zM440 571h258l109 312h-258z" />
<glyph unicode="$" horiz-adv-x="1134" d="M25 84l81 133q147 -100 316 -106l121 565l-51 20q-127 53 -183.5 130t-56.5 202q0 164 127 276.5t326 129.5l36 170h121l-37 -170q187 -17 322 -119l-88 -125q-129 96 -262 106l-107 -497l68 -29q125 -53 178 -138t53 -214q0 -170 -127 -292t-348 -146l-41 -199h-121 l41 192q-207 2 -368 111zM428 1067q0 -84 33 -131t119 -88l96 444q-111 -16 -179.5 -78.5t-68.5 -146.5zM545 119q123 25 195.5 99.5t72.5 166.5t-35 145.5t-125 96.5z" />
<glyph unicode="%" horiz-adv-x="1701" d="M184 969q0 190 117 318t295 128q131 0 199.5 -68.5t68.5 -177.5q0 -207 -116.5 -330.5t-298.5 -123.5q-123 0 -194 63.5t-71 190.5zM326 975q0 -147 153 -148q117 0 181.5 91.5t64.5 232.5q0 152 -156 152q-121 0 -182 -90.5t-61 -237.5zM350 0l979 1395h135l-979 -1395 h-135zM942 233q0 190 117 318.5t295 128.5q131 0 199.5 -68.5t68.5 -177.5q0 -207 -116.5 -330.5t-299.5 -123.5q-123 0 -193.5 63t-70.5 190zM1083 240q0 -147 154 -148q117 0 181.5 91.5t64.5 232.5q0 152 -156 151q-121 0 -182.5 -90t-61.5 -237z" />
<glyph unicode="&#x26;" horiz-adv-x="1427" d="M123 281.5q0 150.5 119 269.5q59 59 252 154q-135 145 -136 268q0 78 42 154.5t116 129.5q119 86 270.5 86t238.5 -70.5t87 -184t-71 -196.5t-169 -134l-131 -68l254 -321q39 43 74 161l35 148l141 4q-29 -139 -63.5 -235.5t-102.5 -188.5l203 -256h-213l-106 131 q-78 -76 -194 -120t-239 -44q-188 0 -297.5 81t-109.5 231.5zM301 295q0 -100 66.5 -150.5t177 -50.5t203 38t147.5 93l-322 396q-127 -53 -199.5 -139.5t-72.5 -186.5zM538.5 1041.5q0.5 -66.5 11.5 -99.5q21 -63 118 -164q160 70 214 145.5t54 149.5t-44 114t-126 40 t-155 -59.5t-72.5 -126z" />
<glyph unicode="'" horiz-adv-x="569" d="M313 958l105 492h147l-104 -492h-148z" />
<glyph unicode="(" horiz-adv-x="696" d="M170 237.5q0 186.5 45 419.5q55 256 137 421t219.5 299.5t317.5 199.5l31 -100q-244 -125 -336 -267q-127 -190 -203 -548q-53 -246 -53 -405.5t34 -262.5q51 -145 183 -234l-60 -77q-147 74 -231 221t-84 333.5z" />
<glyph unicode=")" horiz-adv-x="696" d="M-201 -213q244 125 336 266q127 190 203 549q53 246 53 405.5t-35 262.5q-51 145 -182 233l59 78q147 -74 231.5 -221t84.5 -333.5t-45 -420.5q-55 -256 -137 -421t-219.5 -299t-317.5 -199z" />
<glyph unicode="*" horiz-adv-x="909" d="M186 1124l39 119l291 -98v305h123v-305l291 98l39 -119l-289 -98l182 -244l-100 -77l-184 251l-179 -251l-102 77l178 244z" />
<glyph unicode="+" d="M66 438l30 148h365l78 364h147l-78 -364h365l-31 -148h-364l-78 -364h-148l78 364h-364z" />
<glyph unicode="," horiz-adv-x="546" d="M-8 -203q133 59 176 183q-45 0 -77 37.5t-31 97t44 100.5t107.5 41t106.5 -43t42 -111q0 -150 -120 -264q-76 -78 -195 -131z" />
<glyph unicode="-" horiz-adv-x="618" d="M115 469l32 156h392l-33 -156h-391z" />
<glyph unicode="." horiz-adv-x="544" d="M78 113.5q0 58.5 39 97.5t97 39t98 -39t40 -96.5t-41 -99.5t-97 -42t-96 41t-40 99.5z" />
<glyph unicode="/" horiz-adv-x="546" d="M-225 -303l923 1853h136l-924 -1853h-135z" />
<glyph unicode="0" horiz-adv-x="1095" d="M101 511q54 255 206 393t367 138t305 -145t36 -401t-205 -393.5t-367 -137.5t-306 145.5t-36 400.5zM272 201q47 -103 203 -103q289 0 367 375q49 231 2 333.5t-203 102.5q-289 0 -367 -374q-49 -231 -2 -334z" />
<glyph unicode="1" horiz-adv-x="827" d="M121 0l29 129h188l151 715q-178 -102 -301 -148l-22 105l401 237h125l-192 -909h188l-29 -129h-538z" />
<glyph unicode="2" horiz-adv-x="1095" d="M53 0l29 129q96 61 166 111l190 135q213 150 284 226.5t71 160.5t-44 122t-125.5 38t-151 -29t-191.5 -107l-17 -10l-53 94q258 190 469 191q139 0 225 -70.5t86 -183.5q0 -70 -44 -151t-124 -148q-154 -133 -344 -252l-213 -133q98 8 213 8h418l-61 -131h-783z" />
<glyph unicode="3" horiz-adv-x="1095" d="M-37 -250q39 -6 151 -6t221 22.5t202 92.5q123 92 161 239q16 84 -17.5 156t-100 93t-248.5 22h-21l25 114h18q164 2 207 7t86 21.5t86 71t58 117.5q23 104 -31.5 163t-157 59t-211.5 -48l-147 -79l-56 90q139 106 314 151q72 18 149 19q164 0 255.5 -98.5t65.5 -221.5 t-110 -203.5t-205 -113.5q12 -4 15 -4q90 -33 127 -68q109 -104 76.5 -254.5t-150.5 -257.5q-219 -207 -647 -207q-61 0 -101 6z" />
<glyph unicode="4" horiz-adv-x="1095" d="M-14 10l26 127l668 922h178l-553 -766l-125 -162q41 6 80 6h363l14 60q12 66 47 184l82 287l135 39l-88 -412l-37 -160q39 4 70 4h100l-28 -129h-113l-55 2q-4 -33 -11 -59l-63 -303l-168 -47l88 409q-55 -2 -82 -2h-528z" />
<glyph unicode="5" horiz-adv-x="1095" d="M-14 -240q57 -29 147 -28q188 0 339 99t183 253q29 131 -37.5 209t-218 78t-262.5 -45l213 690h606l-53 -135h-442l-121 -398q90 10 147 11q180 0 280.5 -116t63.5 -294q-47 -221 -245.5 -344t-450.5 -123q-76 0 -145 21z" />
<glyph unicode="6" horiz-adv-x="1095" d="M96 376q0 181 81 361.5t239 327.5q266 250 633 352l20 -117q-174 -51 -322.5 -142t-238.5 -197.5t-154 -251.5q137 106 322 106q135 0 232.5 -93t97.5 -243q0 -227 -156 -370.5t-377 -143.5q-170 0 -273.5 115t-103.5 296zM274 351q0 -112 61.5 -186.5t164.5 -74.5 q143 0 232 102.5t89 274.5q0 115 -55 170t-150 55q-139 0 -299 -108q-43 -121 -43 -233z" />
<glyph unicode="7" horiz-adv-x="1095" d="M43 -379q89 264 375 671t493 591q-119 -4 -190 -4h-541l60 135h831l-22 -156l-179 -209q-211 -264 -299 -393q-221 -319 -321 -584z" />
<glyph unicode="8" horiz-adv-x="1095" d="M61 344q55 256 367 367q-217 115 -174 325q33 152 165 239t317.5 87t279.5 -93t67 -218q-37 -180 -252 -291q-63 -31 -90 -41l95 -47q86 -43 127 -133t20 -191q-35 -166 -177 -274.5t-343 -108.5t-317.5 115t-84.5 264zM226 349q-26 -116 42 -189.5t201 -73.5t228.5 59.5 t118 174t-27.5 174.5q-29 35 -84 68.5t-182 96.5q-125 -61 -197.5 -127.5t-98.5 -182.5zM412.5 1045q-21.5 -100 43.5 -167t177 -108q262 125 293 268q20 94 -38.5 150.5t-177 56.5t-197.5 -50t-100.5 -150z" />
<glyph unicode="9" horiz-adv-x="1095" d="M-70 -319q188 31 383 138q322 177 441 451q-137 -106 -322 -106q-131 0 -225 105.5t-94 256.5q0 227 157.5 376t376.5 149q170 0 273.5 -115t103.5 -298t-78 -368.5t-233 -330.5q-309 -291 -719 -361zM297 539q0 -119 52 -185.5t143 -66.5q139 0 299 108q55 154 55 267.5 t-61.5 188.5t-163.5 75q-141 0 -232.5 -107.5t-91.5 -279.5z" />
<glyph unicode=":" horiz-adv-x="618" d="M96 113.5q0 58.5 39 97.5t97 39t98.5 -39t40.5 -96.5t-41 -99.5t-97.5 -42t-96.5 41t-40 99.5zM233 760.5q0 58.5 39 97.5t97.5 39t98.5 -39t40 -96t-41 -99t-97 -42t-96.5 40.5t-40.5 99z" />
<glyph unicode=";" horiz-adv-x="620" d="M16 -203q133 59 177 183q-45 0 -77 37.5t-31 97t44 100.5t107.5 41t106.5 -43t42 -111q0 -150 -121 -264q-76 -78 -194 -131zM223 760.5q0 58.5 39 97.5t97 39t98.5 -39t40.5 -96t-41 -99t-97.5 -42t-96.5 40.5t-40 99z" />
<glyph unicode="&#x3c;" horiz-adv-x="663" d="M55 614l525 527l118 -97l-448 -444l252 -430l-148 -82z" />
<glyph unicode="=" horiz-adv-x="1363" d="M129 393l29 135h1069l-29 -135h-1069zM197 713l28 135h1069l-28 -135h-1069z" />
<glyph unicode="&#x3e;" horiz-adv-x="663" d="M12 184l449 445l-252 430l147 82l299 -527l-524 -526z" />
<glyph unicode="?" horiz-adv-x="731" d="M147 107.5q0 52.5 37 89t88.5 36.5t88 -35.5t36.5 -87.5t-36.5 -90t-88 -38t-88.5 36.5t-37 89zM184 1298q186 125 353.5 125t243 -67.5t75.5 -186.5q0 -184 -256 -354q-113 -76 -157 -158t-44 -202h-137q-4 143 48 254.5t188 193.5q190 117 190 227q0 76 -44 115 t-122 39q-131 0 -284 -94z" />
<glyph unicode="@" horiz-adv-x="1638" d="M88 725q2 319 226.5 540.5t526.5 221.5t504.5 -178.5t200.5 -448.5q0 -127 -48 -240.5t-119.5 -188.5t-154.5 -119t-147.5 -44t-100.5 35t-40 100h-4q-117 -135 -251 -135t-213 90.5t-81 227.5q2 225 136 402t341 177q166 0 228 -168h4l37 129h133l-172 -579 q-16 -63 -19 -103q0 -41 49 -41q100 0 193.5 140.5t93.5 306.5q0 231 -167 378.5t-390 147.5q-264 0 -447.5 -192.5t-183.5 -461.5t187.5 -458.5t443.5 -189.5q152 0 293 67.5t225 180.5h129q-100 -166 -273 -262.5t-374 -96.5q-322 0 -544 221.5t-222 540.5zM537 600 q-2 -84 48 -140.5t128 -56.5q125 0 221 148t96 287q0 78 -50 135t-116 57q-135 0 -232 -142.5t-95 -287.5z" />
<glyph unicode="A" horiz-adv-x="1169" d="M-94 0l768 1405h219l166 -1405h-182l-41 432h-525l-227 -432h-178zM387 569h434l-47 471l-20 217l-115 -206z" />
<glyph unicode="B" horiz-adv-x="1208" d="M86 0l299 1405h363q238 0 334 -82t96 -225q0 -270 -320 -355q240 -43 240 -299q0 -184 -180 -331q-82 -66 -179.5 -89.5t-289.5 -23.5h-363zM276 137h277q168 0 264 77.5t96 227.5q-4 111 -44 152t-87 54.5t-145 13.5h-248zM418 801h254q141 0 223 61q94 76 94 207 q0 195 -254 195h-219z" />
<glyph unicode="C" horiz-adv-x="1097" d="M125 485q0 184 66.5 374t177 314t246 187t270.5 63h3q194 0 320 -116l-94 -105q-100 86 -248 86q-248 0 -401 -241q-76 -117 -121 -274t-45 -311.5t85 -248.5t238.5 -94t301.5 90l65 -117q-201 -115 -413 -115t-331.5 138.5t-119.5 369.5z" />
<glyph unicode="D" horiz-adv-x="1280" d="M82 0l297 1393h301q158 0 245 -22.5t160 -86.5q142 -121 142 -397q0 -182 -88 -396.5t-197.5 -312.5t-222.5 -138t-270 -40h-367zM281 139h149q287 0 406 146q98 121 153 286.5t55 317t-57 239.5q-47 78 -113.5 102.5t-187.5 24.5h-168z" />
<glyph unicode="E" horiz-adv-x="1060" d="M86 0l297 1395h768l-51 -140h-576l-98 -454h481l-30 -146h-482l-108 -510h618l-31 -145h-788z" />
<glyph unicode="F" horiz-adv-x="952" d="M82 0l297 1399h739l-55 -139h-543l-96 -455h450l-28 -137h-451l-143 -668h-170z" />
<glyph unicode="G" horiz-adv-x="1243" d="M127 470q0 214 76 414.5t213 338.5q194 194 474 194h3q217 0 350 -131l-84 -104q-125 100 -291 100q-217 0 -348 -162q-94 -117 -152.5 -301t-58.5 -351t94.5 -261t238.5 -94t247 55l90 428h-283v139h471l-139 -655q-186 -106 -414 -106q0 -1 -1 -1q-226 0 -356 141 q-130 142 -130 356z" />
<glyph unicode="H" horiz-adv-x="1284" d="M76 0l299 1405h164l-125 -588h592l124 588h168l-299 -1405h-168l146 680h-592l-145 -680h-164z" />
<glyph unicode="I" horiz-adv-x="548" d="M90 0l299 1405h164l-299 -1405h-164z" />
<glyph unicode="J" horiz-adv-x="546" d="M-139 -158q131 49 196 138q49 61 90 256l248 1169h168l-248 -1165q-12 -62 -36.5 -153t-81.5 -169q-98 -125 -277 -180z" />
<glyph unicode="K" horiz-adv-x="1169" d="M68 0l299 1405h170l-299 -1405h-170zM403 743l730 707l127 -92l-664 -627l405 -706l-176 -56z" />
<glyph unicode="L" horiz-adv-x="952" d="M82 0l299 1405h168l-268 -1264h555l-54 -141h-700z" />
<glyph unicode="M" horiz-adv-x="1574" d="M33 0l422 1405h245l62 -918q5 -76 5 -145q0 -52 -3 -100q43 104 100 229l463 934h248l-178 -1405h-168l137 1030l41 240q-47 -115 -102 -221l-525 -1049h-143l-66 997q-12 213 -12 275q-49 -186 -74 -273l-290 -999h-162z" />
<glyph unicode="N" horiz-adv-x="1280" d="M72 0l299 1401h194l277 -895l67 -293q35 242 74 426l156 762h166l-299 -1401h-177l-268 858q-72 233 -88 336q-20 -162 -61 -381l-166 -813h-174z" />
<glyph unicode="O" horiz-adv-x="1353" d="M137 466q0 228 78 442t185.5 323.5t217 154t261.5 44.5q209 0 324.5 -124.5t115.5 -369t-88 -478t-250 -358.5q-90 -70 -184.5 -98.5t-221.5 -28.5q-215 0 -326.5 132.5t-111.5 360.5zM322 432q0 -330 290 -330q170 0 287 121q102 98 170 323.5t68 424.5q0 323 -285 323 h-2q-215 0 -336 -164q-88 -119 -140 -303t-52 -395z" />
<glyph unicode="P" horiz-adv-x="1171" d="M88 0l299 1405h365q225 0 326.5 -91.5t101.5 -234.5q0 -262 -197 -417q-127 -102 -367 -103h-245l-119 -559h-164zM399 696h236q154 0 235 76q127 114 127 268q0 115 -68.5 169.5t-230.5 54.5h-178z" />
<glyph unicode="Q" horiz-adv-x="1353" d="M137 469q0 229 75 437t185.5 321.5t220 158t261.5 44.5q209 0 324.5 -124.5t115.5 -369t-88 -478t-250 -358.5q-70 -53 -156 -90q68 -23 161 -83t210 -60q55 0 86 10l-49 -110q-45 -20 -135 -21h-1q-90 0 -259 104q-169 103 -273 123q-209 2 -318.5 134.5t-109.5 361.5z M322 432q0 -330 290 -330q170 0 287 121q102 98 170 323.5t68 424.5q0 323 -285 323h-2q-215 0 -336 -164q-84 -111 -138 -317.5t-54 -380.5z" />
<glyph unicode="R" horiz-adv-x="1169" d="M84 0l299 1403h307q229 0 334.5 -78t105.5 -260.5t-135 -307t-327 -124.5h-21q111 -111 203 -296.5t131 -311.5l-147 -50q-31 76 -117 262.5t-176 311.5q-37 51 -68 66.5t-86 17.5l-135 -633h-168zM412 737h149q182 0 268 72q123 93 123 238q0 115 -63.5 165t-204.5 50 h-162z" />
<glyph unicode="S" horiz-adv-x="1134" d="M25 84l81 133q152 -106 327 -106t275.5 79.5t100.5 202.5q0 90 -39 144.5t-152 101.5l-126 53q-125 53 -182.5 132t-57.5 204q0 178 147.5 293t368.5 115t379 -121l-88 -125q-149 109 -298 109l-1 -1q-149 0 -238.5 -66.5t-89.5 -160.5t37 -142t141 -93l148 -64 q125 -53 178 -138t53 -216q0 -190 -156.5 -317.5t-398 -127.5t-409.5 111z" />
<glyph unicode="T" horiz-adv-x="1026" d="M213 1264l31 141h930l-41 -141h-381l-269 -1264h-161l268 1264h-377z" />
<glyph unicode="U" horiz-adv-x="1247" d="M139 260q0 112 19 203l200 942h166l-190 -899q-31 -145 -31 -221t64.5 -121t183.5 -45q251 0 327 179q21 48 44 148l202 959h166l-207 -977q-33 -156 -67.5 -225.5t-108.5 -124.5q-141 -102 -363 -102q-1 0 -3 -1q-220 1 -311 87t-91 198z" />
<glyph unicode="V" horiz-adv-x="1173" d="M227 1405h174l107 -901q15 -138 15 -250q0 -33 -1 -64q57 123 148 293l497 922h181l-781 -1405h-166z" />
<glyph unicode="W" horiz-adv-x="1675" d="M246 1405h172l4 -821q0 -154 -16 -428q70 180 167 407l365 842h190l9 -815q2 -84 2 -156q0 -179 -11 -278q66 180 175 434l348 815h176l-621 -1405h-219l-8 780v53q0 184 12 347q-80 -217 -155 -387l-340 -793h-217z" />
<glyph unicode="X" horiz-adv-x="1099" d="M-88 0l588 766l-246 639h190l183 -508l366 508h205l-493 -651l284 -754h-211l-217 633l-461 -633h-188z" />
<glyph unicode="Y" horiz-adv-x="1099" d="M209 1405h199l151 -537q25 -80 39 -157q43 66 109 157l385 537h200l-639 -858l-116 -547h-175l119 557z" />
<glyph unicode="Z" horiz-adv-x="991" d="M-35 0v129l821 987q98 115 119 135q-39 -2 -145 -2h-524l57 142h803v-144l-803 -971q-33 -41 -115 -135q49 2 121 2h557l-53 -143h-838z" />
<glyph unicode="[" horiz-adv-x="530" d="M-113 -319l387 1818h338l-26 -123h-191l-334 -1573h191l-27 -122h-338z" />
<glyph unicode="\" horiz-adv-x="757" d="M221 1487l139 49l281 -1573l-139 -51z" />
<glyph unicode="]" horiz-adv-x="530" d="M-35 -319l27 122h190l334 1573h-190l26 123h338l-387 -1818h-338z" />
<glyph unicode="^" horiz-adv-x="1363" d="M182 563l645 887h123l269 -887h-152l-215 715l-518 -715h-152z" />
<glyph unicode="_" d="M-156 -256l21 102h1024l-21 -102h-1024z" />
<glyph unicode="`" horiz-adv-x="692" d="M260 1362l88 158l422 -267l-53 -96z" />
<glyph unicode="a" horiz-adv-x="1077" d="M106 304q0 157 57.5 314.5t155.5 258.5q168 172 414 172q168 0 287 -84q-29 -102 -53 -213l-88 -422q-19 -101 -19 -152q0 -16 2 -28q8 -46 51 -91l-127 -98q-47 49 -64 99q-13 37 -13 87q0 18 2 37q-53 -94 -145.5 -148t-202 -54t-183.5 82.5t-74 239.5zM272 303 q0 -184 154 -184q80 0 165 68.5t140 177.5l111 526q-47 29 -123 29q-180 0 -303 -148q-72 -86 -108 -215t-36 -254z" />
<glyph unicode="b" horiz-adv-x="1134" d="M86 100q23 74 39 154l186 879q23 112 23 196q0 67 -15 115l170 65q15 -50 15 -119q0 -98 -29 -235l-29 -137q-8 -37 -49 -189q66 92 169.5 152.5t203.5 60.5q277 0 277 -343q0 -170 -64.5 -329t-173.5 -261q-139 -133 -330 -134q-246 0 -393 125zM264 172q72 -61 215 -61 q55 0 120 30.5t101 71.5q78 88 124 228.5t46 263.5q0 192 -163 192h-2q-158 0 -336 -229z" />
<glyph unicode="c" horiz-adv-x="878" d="M98 324q0 170 78 345t184 261q141 117 298 117t255 -86l-75 -125q-85 72 -209 72h-2q-125 0 -213 -115q-55 -74 -99.5 -213.5t-44.5 -253.5q0 -221 193 -222q127 0 244 111l65 -102q-162 -135 -340 -136q-334 0 -334 347z" />
<glyph unicode="d" horiz-adv-x="1134" d="M168 633q59 149 168 260q70 72 168 109.5t217 37.5t194 -39l105 494l156 -27l-244 -1138q-19 -101 -19 -149q-1 -15 1 -25q8 -43 51 -97l-138 -102q-76 76 -76 189q0 14 1 30q-145 -190 -359 -190q-284 0 -284 340q0 158 59 307zM279 319q0 -198 148 -198h1 q209 0 350 244l105 499q-84 43 -171 43q-165 0 -272 -112q-68 -74 -114.5 -216.5t-46.5 -259.5z" />
<glyph unicode="e" d="M88 338q0 162 58.5 315.5t166.5 251.5q152 143 336 144q141 0 217 -71t76 -195t-94 -212q-124 -116 -435 -116h-5q-37 0 -127 4q-15 -68 -15 -149.5t58 -139.5t148.5 -58.5t157 25t138.5 90.5l68 -98q-80 -82 -172.5 -117t-239.5 -35t-241.5 99.5t-94.5 261.5zM307 580 q29 -2 105 -2q236 0 317 77q51 55 51 121.5t-37.5 106t-127.5 39.5t-179.5 -93.5t-128.5 -248.5z" />
<glyph unicode="f" horiz-adv-x="587" d="M-16 -354q92 127 133 340l176 905h-105l23 121h104l29 145q39 199 156 275q78 51 198.5 51t196.5 -51l-59 -121q-70 47 -152 47q-137 0 -176 -180l-31 -166h283l-72 -121h-233l-183 -920q-51 -262 -157 -397z" />
<glyph unicode="g" horiz-adv-x="1134" d="M-23 -326l60 129q150 -86 311.5 -86t239.5 54.5t112 199.5l43 187q-76 -98 -158.5 -137t-205.5 -39t-198 90t-75 253t68 321.5t170 250.5q168 154 393 154q113 0 187.5 -20.5t152.5 -69.5q-31 -80 -59 -220l-160 -747q-47 -223 -171 -317.5t-325.5 -94.5t-384.5 92z M279 330q0 -211 165 -211q195 0 340 246l109 514q-61 30 -163 30h-7q-154 0 -264 -104q-72 -66 -126 -213.5t-54 -261.5z" />
<glyph unicode="h" horiz-adv-x="1103" d="M74 0l239 1126q25 116 25 204q0 65 -14 114l170 65q14 -49 15 -118q0 -108 -36 -267l-22 -106q-16 -76 -52 -191q86 109 191.5 162t203 53t154 -54t56.5 -136q0 -45 -17 -121l-156 -731h-157l145 688q16 78 17 105q0 110 -103 110h-2q-74 0 -172 -63.5t-184 -171.5 l-142 -668h-159z" />
<glyph unicode="i" horiz-adv-x="509" d="M66 0l217 1016l174 26l-221 -1042h-170zM311 1334q0 52 37 89t88 37t88 -35.5t37 -89t-37 -89.5t-88 -36t-88 36t-37 88z" />
<glyph unicode="j" horiz-adv-x="512" d="M-143 -299q104 45 148 110.5t79 223.5l207 977l170 32l-217 -1017q-41 -188 -115 -283.5t-215 -149.5zM354 1441q37 38 88.5 38t87.5 -37q36 -36 36 -86v-3q-1 -52 -36.5 -89t-88 -37t-89.5 35q-36 35 -36 86q0 54 38 93z" />
<glyph unicode="k" d="M63 0l242 1135q24 112 24 194q0 67 -16 115l170 65q16 -52 17 -124q0 -92 -27 -216l-250 -1169h-160zM356 590l525 473l112 -92l-454 -396l346 -542l-158 -64z" />
<glyph unicode="l" horiz-adv-x="509" d="M102 100q0 33 11 88l200 949q23 108 23 192q0 65 -14 115l170 65q16 -50 16 -121q0 -103 -33 -251l-194 -912q-10 -47 -11 -73q0 -49 43 -50q29 0 39 4l10 -104q-51 -22 -118 -22h-6q-135 0 -136 120z" />
<glyph unicode="m" horiz-adv-x="1613" d="M74 0l155 731q21 99 23 143v13q0 40 -14 94l149 70q25 -53 25 -118q0 -50 -15 -108q186 217 377 217q174 0 174 -215q190 219 383 220q88 0 138.5 -59.5t50.5 -139.5q0 -37 -17 -119l-155 -729h-164l151 713q12 53 13 98q0 90 -101 90q-59 0 -149 -65.5t-172 -165.5 l-144 -670h-161l147 696q20 90 20 119q0 86 -81 86q-61 0 -156.5 -63.5t-181.5 -171.5l-142 -666h-153z" />
<glyph unicode="n" horiz-adv-x="1105" d="M74 0l155 729q20 88 20 158q0 52 -11 94l149 70q22 -65 22 -130q0 -48 -12 -96q80 106 187.5 161.5t207 55.5t156 -54t56.5 -148q0 -33 -7 -66l-166 -774h-161l147 690q16 72 17 111q0 102 -103 102q-70 0 -167 -59.5t-193 -177.5l-142 -666h-155z" />
<glyph unicode="o" horiz-adv-x="1124" d="M109 334q0 303 161.5 505.5t405.5 202.5q172 0 259 -99t87 -271q0 -301 -160 -504t-407 -203q-166 0 -256 97.5t-90 271.5zM285 324q0 -225 200 -226q170 0 265.5 172t95.5 420q0 115 -55.5 168t-143.5 53q-168 0 -265 -165.5t-97 -421.5z" />
<glyph unicode="p" horiz-adv-x="1128" d="M-20 -426l247 1157q20 100 21 151q1 4 1 8q0 46 -16 91l150 70q25 -57 25 -128q0 -42 -9 -89q78 102 178.5 154t192.5 52q129 0 195.5 -86.5t66.5 -233t-49 -305.5t-125 -251t-177 -140.5t-225 -48.5t-220 52l-91 -422zM264 170q74 -61 211 -61q70 0 142.5 38.5 t118.5 108.5t84 201.5t38 240t-36 154t-113.5 45.5t-167.5 -59.5t-170 -165.5z" />
<glyph unicode="q" horiz-adv-x="1099" d="M106 325.5q0 163.5 65 321.5t165 250q168 154 393 154q113 0 187.5 -20.5t152.5 -69.5q-31 -80 -59 -220l-240 -1124l-160 -33l125 574q-76 -98 -158.5 -137t-205.5 -39t-194 90t-71 253.5zM279 332.5q0 -113.5 38.5 -163.5t118.5 -50q195 0 340 246l109 520 q-61 30 -163 30h-7q-147 0 -264 -110q-70 -66 -121 -212.5t-51 -260z" />
<glyph unicode="r" horiz-adv-x="669" d="M76 0l147 692q25 114 27 174v14q0 52 -14 101l149 70q23 -57 25 -105v-10q0 -47 -17 -129q72 109 164 175q91 65 149 65v-1q58 0 93 -10l-70 -174q-25 8 -63 8q-145 0 -299 -231l-136 -639h-155z" />
<glyph unicode="s" horiz-adv-x="913" d="M-12 70l65 123q139 -96 303 -97q109 0 178.5 47t69.5 117.5t-27.5 109t-101.5 70.5l-121 54q-106 47 -152 104t-46 145q0 139 115.5 228.5t294.5 89.5t300 -78l-65 -123q-137 74 -239.5 74t-167 -41t-64.5 -102.5t23.5 -93t86.5 -58.5l129 -55q117 -49 166 -110.5 t49 -147.5q0 -164 -123.5 -259.5t-328.5 -95.5t-344 99z" />
<glyph unicode="t" horiz-adv-x="659" d="M131 133q0 78 16 150l129 614h-133l23 125h137q37 152 70 252l174 37q-53 -152 -82 -289h252l-64 -125h-221l-127 -596q-14 -63 -14 -114.5t23.5 -74t80.5 -22.5t105 21v-103q-88 -41 -189 -41q-180 0 -180 166z" />
<glyph unicode="u" horiz-adv-x="1097" d="M104 170q0 72 17 149l147 693l164 30l-143 -686q-19 -85 -19 -141q0 -60 22 -87q23 -26 92 -26t171 68t180 192l137 648l164 26l-153 -723q-19 -96 -19 -141q0 -10 1 -18q5 -42 44 -95l-125 -102q-77 75 -77 190q0 17 2 35q-182 -217 -393.5 -217t-211.5 205z" />
<glyph unicode="v" horiz-adv-x="987" d="M154 1012l161 35l88 -703q12 -131 13 -174h4q33 78 86 172l375 674l180 2l-600 -1028h-158z" />
<glyph unicode="w" horiz-adv-x="1427" d="M158 1012l161 35l21 -674v-170h6q31 74 68 147l327 676h170l35 -684q2 -35 4 -92l4 -57h4q2 2 30 67.5t32 73.5l307 684h174l-508 -1026h-151l-62 829h-4q-27 -72 -43 -104l-360 -725h-150z" />
<glyph unicode="x" horiz-adv-x="915" d="M-109 0l502 565l-217 451h191l129 -336l266 336h192l-397 -451l270 -565h-200l-185 434l-368 -434h-183z" />
<glyph unicode="y" horiz-adv-x="948" d="M4 -311q86 8 168 82.5t143 228.5l-65 -8v39q0 142 -25 327l-84 650l168 34l70 -653l6 -254h4l453 883h184l-471 -862q-63 -117 -111 -207q-106 -203 -196 -275t-207 -94z" />
<glyph unicode="z" horiz-adv-x="878" d="M-27 0v123l713 768h-479v127h678v-127l-713 -768h565l-73 -123h-691z" />
<glyph unicode="{" horiz-adv-x="681" d="M78 528l26 123q68 0 135.5 64.5t90.5 167.5l76 360q25 117 107.5 186.5t162.5 69.5h143l-26 -123h-111q-98 0 -135 -162l-76 -360q-18 -84 -67 -146q-75 -95 -164 -116l-2 -4q55 -8 102 -69.5t18 -194.5l-75 -359q-37 -162 65 -162h111l-27 -122h-143q-84 0 -135.5 69.5 t-24.5 186.5l76 358q23 104 -17.5 168.5t-109.5 64.5z" />
<glyph unicode="|" horiz-adv-x="454" d="M49 -37l338 1585h135l-338 -1585h-135z" />
<glyph unicode="}" horiz-adv-x="681" d="M-90 -319l27 122h110q98 0 135 162l76 359q29 131 101.5 193.5t129.5 70.5l3 4q-55 14 -100.5 77.5t-20.5 184.5l75 360q37 162 -65 162h-111l27 123h143q80 0 132.5 -69.5t27.5 -186.5l-76 -360q-23 -100 18 -166t109 -66l-26 -123q-70 0 -136.5 -64.5t-89.5 -168.5 l-75 -358q-27 -117 -107 -186.5t-164 -69.5h-143z" />
<glyph unicode="~" horiz-adv-x="1363" d="M231 578q53 57 86 87.5t91.5 61.5t126 31t186.5 -62q124 -78 224.5 -78t199.5 144l47 -98q-57 -59 -88 -89t-90.5 -61t-125 -31t-188.5 62q-124 78 -226 78t-195 -144z" />
<glyph unicode="&#xa1;" horiz-adv-x="544" d="M-33 -403l258 1026h123l-174 -1000zM221 914q0 52 37 90t88 38t88 -36.5t37 -89t-37 -89t-88 -36.5t-88 35.5t-37 87.5z" />
<glyph unicode="&#xa2;" horiz-adv-x="878" d="M117 494q63 285 248 434q119 100 241 114l35 158h113l-35 -158q109 -14 201 -106l-111 -111q-66 66 -119 76l-168 -790q98 20 185 104l65 -102q-137 -117 -278 -131l-33 -156h-113l33 154q-176 16 -243 154t-21 360zM287 459q-66 -309 121 -350l170 792 q-100 -27 -164 -108q-80 -109 -127 -334z" />
<glyph unicode="&#xa3;" horiz-adv-x="1138" d="M14 0l35 160h221l109 516h-197l29 135h197l34 164q53 254 199.5 377t347.5 123t301 -127l-125 -117q-80 96 -218 96t-217 -92t-116 -264l-34 -160h331l-28 -135h-332l-109 -516h504l-35 -160h-897z" />
<glyph unicode="&#xa4;" horiz-adv-x="915" d="M127 178l88 133q-78 94 -77 248t83 246l-92 129l141 82l76 -129q55 16 118.5 16t125.5 -20l76 133l129 -82l-84 -127q0 -1 18 -21q70 -88 70 -239t-72 -236l92 -133l-133 -84l-84 129q-53 -20 -130 -20t-134 22l-86 -131zM279 571q0 -133 43 -196q53 -59 162.5 -59.5 t150.5 90.5q27 59 26 150.5t-40 163t-158 71.5q-186 0 -184 -220z" />
<glyph unicode="&#xa5;" horiz-adv-x="1099" d="M35 328l26 121h398l22 108l-28 88h-351l27 121h285l-205 639h190l152 -537q25 -80 39 -157q43 66 108 157l385 537h209l-475 -639h305l-26 -121h-369l-74 -98l-20 -98h422l-27 -121h-422l-69 -328h-175l70 328h-397z" />
<glyph unicode="&#xa6;" horiz-adv-x="454" d="M49 -37l141 660h136l-142 -660h-135zM242 868l145 680h135l-145 -680h-135z" />
<glyph unicode="&#xa7;" horiz-adv-x="1138" d="M4 -43l154 68q29 -172 239 -172q94 0 170 47t95 141q20 83 -44 137q-39 31 -116 74l-223 131q-57 35 -87 100.5t-14 143.5q41 188 273 291q-141 92 -109.5 242.5t167.5 238.5t275 88q288 0 338 -193l-157 -77q-16 61 -71.5 91.5t-135.5 30.5t-155 -45t-95.5 -141 t65.5 -145l179 -101q123 -66 192.5 -142.5t46.5 -186.5q-37 -176 -237 -277q125 -94 90 -254t-177.5 -251t-297 -91t-248.5 63.5t-117 188.5zM338 641.5q-12 -60.5 25.5 -102t111.5 -80.5l164 -88q59 23 113.5 75t66.5 106t-13.5 100t-57 69.5t-82.5 52.5l-107 60 q-59 -23 -93 -39.5t-75 -54.5t-53 -98.5z" />
<glyph unicode="&#xa8;" d="M354 1271q0 44 31 74.5t75 30.5t74.5 -30.5t30.5 -74.5t-29.5 -76t-74.5 -32t-76 32t-31 76zM776 1271q0 44 31 74.5t75 30.5t75.5 -30.5t31.5 -74.5t-30.5 -76t-74.5 -32t-76 32t-32 76z" />
<glyph unicode="&#xa9;" horiz-adv-x="1638" d="M109 725q47 213 187 388t336.5 274.5t401.5 99.5q313 0 490.5 -220t108.5 -542t-340 -542t-585 -220t-490.5 220t-108.5 542zM245 725q-58 -276 83 -463.5t404 -187.5t485.5 188.5t279.5 462.5q59 274 -83 462.5t-405 188.5t-484.5 -187.5t-279.5 -463.5zM447 727 q44 205 192.5 334t355.5 129q150 0 238 -81t80 -228h-125q0 86 -58.5 142t-156.5 56q-147 0 -253 -99t-137.5 -250.5t35 -256t207.5 -104.5q100 0 182.5 59t114.5 150h127q-63 -147 -184 -233.5t-262 -86.5q-205 0 -302.5 132t-53.5 337z" />
<glyph unicode="&#xaa;" horiz-adv-x="802" d="M80 492l24 110h641l-24 -110h-641zM174 997.5q0 120.5 43 240.5t119 196q127 131 313 131q133 0 223 -66q-27 -90 -41 -166l-65 -317q-16 -96 -10 -129t41 -72l-107 -82q-68 68 -65 152q-92 -135 -258 -135q-78 0 -135.5 63.5t-57.5 184zM313 999q0 -131 107 -131 q59 0 120.5 51.5t102.5 131.5l80 385q-27 16 -84 16q-131 0 -221 -106q-104 -127 -105 -347z" />
<glyph unicode="&#xab;" d="M100 500l408 430l110 -82l-354 -371l180 -356l-122 -68zM481 500l408 430l110 -82l-354 -371l180 -356l-123 -68z" />
<glyph unicode="&#xad;" horiz-adv-x="618" d="M115 469l32 156h392l-33 -156h-391z" />
<glyph unicode="&#xae;" horiz-adv-x="1638" d="M109 725q47 213 187 388t336.5 274.5t401.5 99.5q313 0 490.5 -220t108.5 -542t-340 -542t-585 -220t-490.5 220t-108.5 542zM245 725q-58 -276 83 -463.5t404 -187.5t485.5 188.5t279.5 462.5q59 274 -83 462.5t-405 188.5t-484.5 -187.5t-279.5 -463.5zM485 281 l191 890h336q158 0 221.5 -63t34.5 -190q-45 -219 -287 -244l172 -393h-145l-160 383h-146l-81 -383h-136zM727 774h139q179 0 233 67q26 32 36 83q18 82 -32 109.5t-138 27.5h-179z" />
<glyph unicode="&#xaf;" horiz-adv-x="823" d="M317 1399l25 110h561l-24 -110h-562z" />
<glyph unicode="&#xb0;" horiz-adv-x="798" d="M241 1085.5q1 124.5 91 214t212 89.5t211 -89.5t88 -214.5t-89 -214t-212 -89t-213 89.5t-88 214zM360 1085.5q0 -71.5 55.5 -126t126.5 -54.5t124 54.5t53 126t-51.5 126t-124 54.5t-128 -54.5t-55.5 -126z" />
<glyph unicode="&#xb4;" horiz-adv-x="692" d="M279 1253l426 267l88 -158l-461 -205z" />
<glyph unicode="&#xb6;" horiz-adv-x="1228" d="M199 1028q43 199 191.5 310.5t365.5 111.5h497l-364 -1708h-148l336 1573h-241l-336 -1573h-148l193 905q-186 0 -283.5 109.5t-62.5 271.5z" />
<glyph unicode="&#xb7;" horiz-adv-x="546" d="M159 572q-1 56 39 95.5t95 39.5t94 -39.5t40 -95.5t-39 -96t-95 -40t-94 40t-40 96z" />
<glyph unicode="&#xb8;" horiz-adv-x="878" d="M109 -354l63 96q66 -33 107 -33t66.5 16.5t31.5 45t-13.5 44t-50.5 15.5l-80 -4l97 199l116 -15l-45 -96q132 -18 103 -147q-14 -63 -80 -116.5t-151 -53.5t-164 49z" />
<glyph unicode="&#xba;" horiz-adv-x="802" d="M80 492l24 110h641l-24 -110h-641zM190 1028q0 231 123 384t310 153q133 0 199.5 -76t66.5 -209q0 -227 -122 -382t-310 -155q-127 0 -197 76t-70 209zM336 1022q0 -166 143 -166q123 0 193.5 127t70.5 311q0 80 -40.5 119t-102.5 39q-123 0 -193.5 -122t-70.5 -308z" />
<glyph unicode="&#xbb;" d="M31 135l354 371l-180 356l123 68l221 -447l-408 -430zM412 135l354 371l-180 356l123 68l221 -447l-408 -430z" />
<glyph unicode="&#xbf;" horiz-adv-x="731" d="M-70 -145q0 184 256 354q113 76 157 158t44 202h137q4 -143 -48 -254.5t-187 -193.5q-190 -117 -191 -227q0 -76 44 -115t122 -39q131 0 285 94l53 -108q-186 -125 -353.5 -125t-243 67.5t-75.5 186.5zM389 914q0 52 37 90t88 38t88 -36.5t37 -89t-37 -89t-88 -36.5 t-88 35.5t-37 87.5z" />
<glyph unicode="&#xc0;" horiz-adv-x="1169" d="M-94 0l768 1405h219l166 -1405h-182l-41 432h-525l-227 -432h-178zM387 569h434l-47 471l-20 217l-115 -206zM432 1690l88 158l422 -267l-53 -96z" />
<glyph unicode="&#xc1;" horiz-adv-x="1169" d="M-94 0l768 1405h219l166 -1405h-182l-41 432h-525l-227 -432h-178zM387 569h434l-47 471l-20 217l-115 -206zM615 1581l426 267l88 -158l-461 -205z" />
<glyph unicode="&#xc2;" horiz-adv-x="1169" d="M-94 0l768 1405h219l166 -1405h-182l-41 432h-525l-227 -432h-178zM387 569h434l-47 471l-20 217l-115 -206zM436 1567l404 277l295 -277l-74 -90l-246 174l-315 -174z" />
<glyph unicode="&#xc3;" horiz-adv-x="1169" d="M-94 0l768 1405h219l166 -1405h-182l-41 432h-525l-227 -432h-178zM387 569h434l-47 471l-20 217l-115 -206zM424 1631q70 68 129 98.5t133.5 30.5t135.5 -38t125.5 -38t154.5 80l39 -93q-70 -68 -130.5 -98.5t-135 -30.5t-135 38t-106 38t-75 -12t-46 -24.5t-50.5 -43.5 z" />
<glyph unicode="&#xc4;" horiz-adv-x="1169" d="M-94 0l768 1405h219l166 -1405h-182l-41 432h-525l-227 -432h-178zM387 569h434l-47 471l-20 217l-115 -206zM473 1599q0 44 31 74.5t75 30.5t74.5 -30.5t30.5 -74.5t-29.5 -76t-74.5 -32t-76 32t-31 76zM895 1599q0 44 31 74.5t75 30.5t75.5 -30.5t31.5 -74.5t-30.5 -76 t-74.5 -32t-76 32t-32 76z" />
<glyph unicode="&#xc5;" horiz-adv-x="1169" d="M-94 0l768 1405h219l166 -1405h-182l-41 432h-525l-227 -432h-178zM387 569h434l-47 471l-20 217l-115 -206zM594 1678q2 88 65.5 152.5t151.5 64.5t151.5 -64.5t62.5 -153.5t-64.5 -152.5t-151.5 -63.5t-151.5 64.5t-63.5 152.5zM686 1677.5q0 -49.5 38 -86t86 -36.5 t84 36.5t36 86t-35 86.5t-84 37t-87 -37t-38 -86.5z" />
<glyph unicode="&#xc6;" horiz-adv-x="1884" d="M-63 0l1165 1395h831l-51 -140h-575l-99 -454h482l-31 -146h-481l-109 -510h619l-31 -145h-789l93 432h-463l-359 -432h-202zM610 569h379l137 643z" />
<glyph unicode="&#xc7;" horiz-adv-x="1097" d="M125 479q0 190 66.5 380t177 314t246 187t270.5 63q196 1 323 -116l-94 -105q-100 86 -248 86q-248 0 -401 -241q-76 -117 -121 -274t-45 -311.5t85 -248.5t238.5 -94t301.5 90l65 -117q-201 -115 -416 -115h-6l-26 -63q109 -16 108.5 -111.5t-65 -150.5t-160.5 -55 t-176 49l59 98q70 -35 114 -35q99 0 99 64q0 57 -67 57q-27 0 -56 -4l-14 20q8 16 20.5 40t30.5 65l21 39q-156 37 -243 168t-87 321z" />
<glyph unicode="&#xc8;" horiz-adv-x="1060" d="M86 0l297 1395h768l-51 -140h-576l-98 -454h481l-30 -146h-482l-108 -510h618l-31 -145h-788zM496 1690l88 158l422 -267l-53 -96z" />
<glyph unicode="&#xc9;" horiz-adv-x="1060" d="M86 0l297 1395h768l-51 -140h-576l-98 -454h481l-30 -146h-482l-108 -510h618l-31 -145h-788zM596 1581l426 267l88 -158l-461 -205z" />
<glyph unicode="&#xca;" horiz-adv-x="1060" d="M86 0l297 1395h768l-51 -140h-576l-98 -454h481l-30 -146h-482l-108 -510h618l-31 -145h-788zM424 1567l404 277l295 -277l-74 -90l-246 174l-315 -174z" />
<glyph unicode="&#xcb;" horiz-adv-x="1060" d="M86 0l297 1395h768l-51 -140h-576l-98 -454h481l-30 -146h-482l-108 -510h618l-31 -145h-788zM473 1599q0 44 31 74.5t75 30.5t74.5 -30.5t30.5 -74.5t-29.5 -76t-74.5 -32t-76 32t-31 76zM895 1599q0 44 31 74.5t75 30.5t75.5 -30.5t31.5 -74.5t-30.5 -76t-74.5 -32 t-76 32t-32 76z" />
<glyph unicode="&#xcc;" horiz-adv-x="548" d="M90 0l299 1405h164l-299 -1405h-164zM98 1690l88 158l422 -267l-53 -96z" />
<glyph unicode="&#xcd;" horiz-adv-x="548" d="M90 0l299 1405h164l-299 -1405h-164zM334 1581l426 267l88 -158l-461 -205z" />
<glyph unicode="&#xce;" horiz-adv-x="548" d="M90 0l299 1405h164l-299 -1405h-164zM141 1567l404 277l295 -277l-74 -90l-246 174l-315 -174z" />
<glyph unicode="&#xcf;" horiz-adv-x="548" d="M90 0l299 1405h164l-299 -1405h-164zM174 1599q0 44 31 74.5t75 30.5t74.5 -30.5t30.5 -74.5t-29.5 -76t-74.5 -32t-76 32t-31 76zM596 1599q0 44 31 74.5t75 30.5t75.5 -30.5t31.5 -74.5t-30.5 -76t-74.5 -32t-76 32t-32 76z" />
<glyph unicode="&#xd1;" horiz-adv-x="1280" d="M72 0l299 1401h194l277 -895l67 -293q35 242 74 426l156 762h166l-299 -1401h-177l-268 858q-72 233 -88 336q-20 -162 -61 -381l-166 -813h-174zM516 1631q70 68 129 98.5t133.5 30.5t135.5 -38t125.5 -38t154.5 80l39 -93q-70 -68 -130.5 -98.5t-135 -30.5t-135 38 t-106 38t-75 -12t-46 -24.5t-50.5 -43.5z" />
<glyph unicode="&#xd2;" horiz-adv-x="1353" d="M137 466q0 228 78 442t185.5 323.5t217 154t261.5 44.5q209 0 324.5 -124.5t115.5 -369t-88 -478t-250 -358.5q-90 -70 -184.5 -98.5t-221.5 -28.5q-215 0 -326.5 132.5t-111.5 360.5zM322 432q0 -330 290 -330q170 0 287 121q102 98 170 323.5t68 424.5q0 324 -287 323 q-215 0 -336 -164q-88 -119 -140 -303t-52 -395zM545 1690l88 158l422 -267l-53 -96z" />
<glyph unicode="&#xd3;" horiz-adv-x="1353" d="M137 466q0 228 78 442t185.5 323.5t217 154t261.5 44.5q209 0 324.5 -124.5t115.5 -369t-88 -478t-250 -358.5q-90 -70 -184.5 -98.5t-221.5 -28.5q-215 0 -326.5 132.5t-111.5 360.5zM322 432q0 -330 290 -330q170 0 287 121q102 98 170 323.5t68 424.5q0 324 -287 323 q-215 0 -336 -164q-88 -119 -140 -303t-52 -395zM713 1581l426 267l88 -158l-461 -205z" />
<glyph unicode="&#xd4;" horiz-adv-x="1353" d="M137 466q0 228 78 442t185.5 323.5t217 154t261.5 44.5q209 0 324.5 -124.5t115.5 -369t-88 -478t-250 -358.5q-90 -70 -184.5 -98.5t-221.5 -28.5q-215 0 -326.5 132.5t-111.5 360.5zM322 432q0 -330 290 -330q170 0 287 121q102 98 170 323.5t68 424.5q0 324 -287 323 q-215 0 -336 -164q-88 -119 -140 -303t-52 -395zM540 1567l404 277l295 -277l-74 -90l-246 174l-315 -174z" />
<glyph unicode="&#xd5;" horiz-adv-x="1353" d="M137 466q0 228 78 442t185.5 323.5t217 154t261.5 44.5q209 0 324.5 -124.5t115.5 -369t-88 -478t-250 -358.5q-90 -70 -184.5 -98.5t-221.5 -28.5q-215 0 -326.5 132.5t-111.5 360.5zM322 432q0 -330 290 -330q170 0 287 121q102 98 170 323.5t68 424.5q0 324 -287 323 q-215 0 -336 -164q-88 -119 -140 -303t-52 -395zM547 1631q70 68 129 98.5t133.5 30.5t135.5 -38t125.5 -38t154.5 80l39 -93q-70 -68 -130.5 -98.5t-135 -30.5t-135 38t-106 38t-75 -12t-46 -24.5t-50.5 -43.5z" />
<glyph unicode="&#xd6;" horiz-adv-x="1353" d="M137 466q0 228 78 442t185.5 323.5t217 154t261.5 44.5q209 0 324.5 -124.5t115.5 -369t-88 -478t-250 -358.5q-90 -70 -184.5 -98.5t-221.5 -28.5q-215 0 -326.5 132.5t-111.5 360.5zM322 432q0 -330 290 -330q170 0 287 121q102 98 170 323.5t68 424.5q0 324 -287 323 q-215 0 -336 -164q-88 -119 -140 -303t-52 -395zM590 1605q0 44 31 74.5t75 30.5t74.5 -30.5t30.5 -74.5t-29.5 -76t-74.5 -32t-76 32t-31 76zM1012 1605q0 44 31 74.5t75 30.5t75.5 -30.5t31.5 -74.5t-30.5 -76t-74.5 -32t-76 32t-32 76z" />
<glyph unicode="&#xd7;" d="M102 254l312 258l-203 258l127 104l203 -258l313 258l82 -104l-313 -258l204 -258l-127 -104l-202 258l-314 -258z" />
<glyph unicode="&#xd8;" horiz-adv-x="1353" d="M10 -100l205 252q-78 125 -78 333.5t78 422.5t185.5 323.5t217 154t276.5 44.5t280 -97l178 219l96 -65l-199 -244q70 -117 70 -289q0 -262 -88 -495.5t-250 -358.5q-90 -70 -184.5 -98.5t-221.5 -28.5q-174 0 -284 93l-189 -232zM319 432q0 -66 15 -133l737 907 q-74 90 -221 90q-213 0 -336 -166q-88 -119 -141.5 -303t-53.5 -395zM389 188q76 -88 233.5 -88t276.5 123q102 98 171 324.5t69 423.5q0 66 -13 119l-368 -451q-367 -451 -369 -451z" />
<glyph unicode="&#xd9;" horiz-adv-x="1247" d="M139 260q0 112 19 203l200 942h166l-190 -899q-31 -145 -31 -221t64.5 -121t183.5 -45q251 0 327 179q21 48 44 148l202 959h166l-207 -977q-33 -156 -67.5 -225.5t-108.5 -124.5q-141 -102 -363.5 -102.5t-313.5 86t-91 198.5zM512 1690l88 158l422 -267l-53 -96z" />
<glyph unicode="&#xda;" horiz-adv-x="1247" d="M139 260q0 112 19 203l200 942h166l-190 -899q-31 -145 -31 -221t64.5 -121t183.5 -45q251 0 327 179q21 48 44 148l202 959h166l-207 -977q-33 -156 -67.5 -225.5t-108.5 -124.5q-141 -102 -363.5 -102.5t-313.5 86t-91 198.5zM652 1581l426 267l88 -158l-461 -205z" />
<glyph unicode="&#xdb;" horiz-adv-x="1247" d="M139 260q0 112 19 203l200 942h166l-190 -899q-31 -145 -31 -221t64.5 -121t183.5 -45q251 0 327 179q21 48 44 148l202 959h166l-207 -977q-33 -156 -67.5 -225.5t-108.5 -124.5q-141 -102 -363.5 -102.5t-313.5 86t-91 198.5zM502 1567l404 277l295 -277l-74 -90 l-246 174l-315 -174z" />
<glyph unicode="&#xdc;" horiz-adv-x="1247" d="M139 260q0 112 19 203l200 942h166l-190 -899q-31 -145 -31 -221t64.5 -121t183.5 -45q251 0 327 179q21 48 44 148l202 959h166l-207 -977q-33 -156 -67.5 -225.5t-108.5 -124.5q-141 -102 -363.5 -102.5t-313.5 86t-91 198.5zM538 1599q0 44 31 74.5t75 30.5 t74.5 -30.5t30.5 -74.5t-29.5 -76t-74.5 -32t-76 32t-31 76zM960 1599q0 44 31 74.5t75 30.5t75.5 -30.5t31.5 -74.5t-30.5 -76t-74.5 -32t-76 32t-32 76z" />
<glyph unicode="&#xdf;" horiz-adv-x="1171" d="M-47 -354q88 123 131 340l186 913l-153 -2l26 119l148 -6q5 30 10 45q37 180 137 272q125 119 330 119q139 0 223 -71.5t84 -186.5q0 -162 -149 -254q-66 -45 -197 -84q-43 -14 -43 -31.5t28 -37t93 -54.5t92 -53q141 -96 141 -264q0 -233 -219 -373 q-100 -61 -235.5 -61.5t-210.5 34.5l49 113q68 -31 141 -31q137 0 213 62q98 80 99 215q0 63 -14.5 97t-43 64.5t-128 90t-136.5 108.5q-16 25 -16 66.5t35.5 80t143 85.5t147.5 99t40 121t-47 107.5t-127 38.5q-115 0 -182 -77t-98 -232l-209 -1047q-51 -266 -156 -397z " />
<glyph unicode="&#xe0;" horiz-adv-x="1077" d="M106 304q0 157 57.5 314.5t155.5 258.5q168 172 414 172q168 0 287 -84q-29 -102 -53 -213l-88 -422q-25 -133 -17 -179.5t51 -91.5l-127 -98q-47 49 -64 99.5t-11 123.5q-53 -94 -145.5 -148t-202 -54t-183.5 82.5t-74 239.5zM272 303q0 -184 154 -184q80 0 165 68.5 t140 177.5l111 526q-47 29 -123 29q-180 0 -303 -148q-72 -86 -108 -215t-36 -254zM407 1362l88 158l422 -267l-53 -96z" />
<glyph unicode="&#xe1;" horiz-adv-x="1077" d="M106 304q0 157 57.5 314.5t155.5 258.5q168 172 414 172q168 0 287 -84q-29 -102 -53 -213l-88 -422q-25 -133 -17 -179.5t51 -91.5l-127 -98q-47 49 -64 99.5t-11 123.5q-53 -94 -145.5 -148t-202 -54t-183.5 82.5t-74 239.5zM272 303q0 -184 154 -184q80 0 165 68.5 t140 177.5l111 526q-47 29 -123 29q-180 0 -303 -148q-72 -86 -108 -215t-36 -254zM586 1253l426 267l88 -158l-461 -205z" />
<glyph unicode="&#xe2;" horiz-adv-x="1077" d="M106 304q0 157 57.5 314.5t155.5 258.5q168 172 414 172q168 0 287 -84q-29 -102 -53 -213l-88 -422q-25 -133 -17 -179.5t51 -91.5l-127 -98q-47 49 -64 99.5t-11 123.5q-53 -94 -145.5 -148t-202 -54t-183.5 82.5t-74 239.5zM272 303q0 -184 154 -184q80 0 165 68.5 t140 177.5l111 526q-47 29 -123 29q-180 0 -303 -148q-72 -86 -108 -215t-36 -254zM405 1233l404 277l295 -277l-74 -90l-246 174l-315 -174z" />
<glyph unicode="&#xe3;" horiz-adv-x="1077" d="M106 304q0 157 57.5 314.5t155.5 258.5q168 172 414 172q168 0 287 -84q-29 -102 -53 -213l-88 -422q-25 -133 -17 -179.5t51 -91.5l-127 -98q-47 49 -64 99.5t-11 123.5q-53 -94 -145.5 -148t-202 -54t-183.5 82.5t-74 239.5zM272 303q0 -184 154 -184q80 0 165 68.5 t140 177.5l111 526q-47 29 -123 29q-180 0 -303 -148q-72 -86 -108 -215t-36 -254zM369 1303q70 68 129 98.5t133.5 30.5t135.5 -38t125.5 -38t154.5 80l39 -93q-70 -68 -130.5 -98.5t-135 -30.5t-135 38t-106 38t-75 -12t-46 -24.5t-50.5 -43.5z" />
<glyph unicode="&#xe4;" horiz-adv-x="1077" d="M106 304q0 157 57.5 314.5t155.5 258.5q168 172 414 172q168 0 287 -84q-29 -102 -53 -213l-88 -422q-25 -133 -17 -179.5t51 -91.5l-127 -98q-47 49 -64 99.5t-11 123.5q-53 -94 -145.5 -148t-202 -54t-183.5 82.5t-74 239.5zM272 303q0 -184 154 -184q80 0 165 68.5 t140 177.5l111 526q-47 29 -123 29q-180 0 -303 -148q-72 -86 -108 -215t-36 -254zM397 1271q0 44 31 74.5t75 30.5t74.5 -30.5t30.5 -74.5t-29.5 -76t-74.5 -32t-76 32t-31 76zM819 1271q0 44 31 74.5t75 30.5t75.5 -30.5t31.5 -74.5t-30.5 -76t-74.5 -32t-76 32t-32 76z " />
<glyph unicode="&#xe5;" horiz-adv-x="1077" d="M106 304q0 157 57.5 314.5t155.5 258.5q168 172 414 172q168 0 287 -84q-29 -102 -53 -213l-88 -422q-25 -133 -17 -179.5t51 -91.5l-127 -98q-47 49 -64 99.5t-11 123.5q-53 -94 -145.5 -148t-202 -54t-183.5 82.5t-74 239.5zM272 303q0 -184 154 -184q80 0 165 68.5 t140 177.5l111 526q-47 29 -123 29q-180 0 -303 -148q-72 -86 -108 -215t-36 -254zM506 1350q2 88 65.5 152.5t151.5 64.5t151.5 -64.5t62.5 -153.5t-64.5 -152.5t-151.5 -63.5t-151.5 64.5t-63.5 152.5zM598 1349.5q0 -49.5 38 -86t86 -36.5t84 36.5t36 86t-35 86.5t-84 37 t-87 -37t-38 -86.5z" />
<glyph unicode="&#xe6;" horiz-adv-x="1581" d="M59 231q0 158 125 252q88 66 193.5 90.5t275.5 24.5l70 -2l25 104q14 66 14 112t-38 74.5t-103 28.5q-172 0 -349 -120l-55 114q233 137 455 138q178 0 223 -146q154 147 328 148q139 0 207.5 -70t68.5 -195t-94 -213q-125 -117 -440 -116q-37 0 -127 4 q-14 -66 -14.5 -148.5t58 -141t149.5 -58.5t156.5 25.5t137.5 88.5l68 -98q-78 -80 -171.5 -115t-242.5 -35q-178 0 -281 166q-76 -92 -157.5 -131t-208.5 -39t-200 73t-73 185zM238 267q1 -175 143 -175q123 0 213 107q53 63 102 280l-80 4q-229 0 -304 -64.5t-74 -151.5z M864 580q29 -2 105 -2q236 0 317 77q51 55 51 121.5t-37.5 106t-127.5 39.5t-179.5 -93.5t-128.5 -248.5z" />
<glyph unicode="&#xe7;" horiz-adv-x="878" d="M98 324q0 170 78 345t184 261q141 117 298 117t255 -86l-75 -125q-86 72 -211 71.5t-213 -114.5q-55 -74 -99.5 -213.5t-44.5 -253.5q0 -221 193 -222q127 0 244 111l65 -102q-162 -135 -340 -136h-2l-29 -63q109 -16 109 -111.5t-64.5 -150.5t-161 -55t-175.5 49l59 98 q70 -35 114 -35q99 0 99 64q0 57 -68 57q-27 0 -55 -4l-14 20l65 146q-211 57 -211 332z" />
<glyph unicode="&#xe8;" d="M88 338q0 162 58.5 315.5t166.5 251.5q152 143 336 144q141 0 217 -71t76 -195t-94 -212q-125 -117 -440 -116q-37 0 -127 4q-14 -66 -14.5 -148.5t58 -141t148.5 -58.5t156.5 25.5t138.5 90.5l68 -98q-80 -82 -172.5 -117t-239.5 -35t-241.5 99.5t-94.5 261.5zM307 580 q29 -2 105 -2q236 0 317 77q51 55 51 121.5t-37.5 106t-127.5 39.5t-179.5 -93.5t-128.5 -248.5zM364 1362l88 158l422 -267l-53 -96z" />
<glyph unicode="&#xe9;" d="M88 338q0 162 58.5 315.5t166.5 251.5q152 143 336 144q141 0 217 -71t76 -195t-94 -212q-125 -117 -440 -116q-37 0 -127 4q-14 -66 -14.5 -148.5t58 -141t148.5 -58.5t156.5 25.5t138.5 90.5l68 -98q-80 -82 -172.5 -117t-239.5 -35t-241.5 99.5t-94.5 261.5zM307 580 q29 -2 105 -2q236 0 317 77q51 55 51 121.5t-37.5 106t-127.5 39.5t-179.5 -93.5t-128.5 -248.5zM539 1253l426 267l88 -158l-461 -205z" />
<glyph unicode="&#xea;" d="M88 338q0 162 58.5 315.5t166.5 251.5q152 143 336 144q141 0 217 -71t76 -195t-94 -212q-125 -117 -440 -116q-37 0 -127 4q-14 -66 -14.5 -148.5t58 -141t148.5 -58.5t156.5 25.5t138.5 90.5l68 -98q-80 -82 -172.5 -117t-239.5 -35t-241.5 99.5t-94.5 261.5zM307 580 q29 -2 105 -2q236 0 317 77q51 55 51 121.5t-37.5 106t-127.5 39.5t-179.5 -93.5t-128.5 -248.5zM319 1233l404 277l295 -277l-74 -90l-246 174l-315 -174z" />
<glyph unicode="&#xeb;" d="M88 338q0 162 58.5 315.5t166.5 251.5q152 143 336 144q141 0 217 -71t76 -195t-94 -212q-125 -117 -440 -116q-37 0 -127 4q-14 -66 -14.5 -148.5t58 -141t148.5 -58.5t156.5 25.5t138.5 90.5l68 -98q-80 -82 -172.5 -117t-239.5 -35t-241.5 99.5t-94.5 261.5zM307 580 q29 -2 105 -2q236 0 317 77q51 55 51 121.5t-37.5 106t-127.5 39.5t-179.5 -93.5t-128.5 -248.5zM354 1271q0 44 31 74.5t75 30.5t74.5 -30.5t30.5 -74.5t-29.5 -76t-74.5 -32t-76 32t-31 76zM776 1271q0 44 31 74.5t75 30.5t75.5 -30.5t31.5 -74.5t-30.5 -76t-74.5 -32 t-76 32t-32 76z" />
<glyph unicode="&#xec;" horiz-adv-x="509" d="M57 1362l88 158l422 -267l-53 -96zM63 0l218 1016l176 26l-221 -1042h-173z" />
<glyph unicode="&#xed;" horiz-adv-x="509" d="M63 0l218 1016l176 26l-221 -1042h-173zM271 1253l426 267l88 -158l-461 -205z" />
<glyph unicode="&#xee;" horiz-adv-x="509" d="M61 1239l404 277l295 -277l-74 -90l-246 174l-315 -174zM63 0l218 1016l176 26l-221 -1042h-173z" />
<glyph unicode="&#xef;" horiz-adv-x="509" d="M63 0l218 1016l176 26l-221 -1042h-173zM96 1271q0 44 31 74.5t75 30.5t74.5 -30.5t30.5 -74.5t-29.5 -76t-74.5 -32t-76 32t-31 76zM518 1271q0 44 31 74.5t75 30.5t75.5 -30.5t31.5 -74.5t-30.5 -76t-74.5 -32t-76 32t-32 76z" />
<glyph unicode="&#xf1;" horiz-adv-x="1105" d="M74 0l155 729q35 154 9 252l149 70q39 -113 10 -226q80 106 187.5 161.5t207 55.5t156 -54t56.5 -148q0 -33 -7 -66l-166 -774h-161l147 690q16 72 17 111q0 102 -103 102q-70 0 -167 -59.5t-193 -177.5l-142 -666h-155zM338 1303q70 68 129 98.5t133.5 30.5t135.5 -38 t125.5 -38t154.5 80l39 -93q-70 -68 -130.5 -98.5t-135 -30.5t-135 38t-106 38t-75 -12t-46 -24.5t-50.5 -43.5z" />
<glyph unicode="&#xf2;" horiz-adv-x="1124" d="M109 334q0 303 161.5 505.5t405.5 202.5q172 0 259 -99t87 -271q0 -301 -160 -504t-407 -203q-166 0 -256 97.5t-90 271.5zM285 324q0 -225 200 -226q170 0 265.5 172t95.5 420q0 115 -55.5 168t-143.5 53q-168 0 -265 -165.5t-97 -421.5zM377 1362l88 158l422 -267 l-53 -96z" />
<glyph unicode="&#xf3;" horiz-adv-x="1124" d="M109 334q0 303 161.5 505.5t405.5 202.5q172 0 259 -99t87 -271q0 -301 -160 -504t-407 -203q-166 0 -256 97.5t-90 271.5zM285 324q0 -225 200 -226q170 0 265.5 172t95.5 420q0 115 -55.5 168t-143.5 53q-168 0 -265 -165.5t-97 -421.5zM564 1253l426 267l88 -158 l-461 -205z" />
<glyph unicode="&#xf4;" horiz-adv-x="1124" d="M109 334q0 303 161.5 505.5t405.5 202.5q172 0 259 -99t87 -271q0 -301 -160 -504t-407 -203q-166 0 -256 97.5t-90 271.5zM285 324q0 -225 200 -226q170 0 265.5 172t95.5 420q0 115 -55.5 168t-143.5 53q-168 0 -265 -165.5t-97 -421.5zM362 1239l404 277l295 -277 l-74 -90l-246 174l-315 -174z" />
<glyph unicode="&#xf5;" horiz-adv-x="1124" d="M109 334q0 303 161.5 505.5t405.5 202.5q172 0 259 -99t87 -271q0 -301 -160 -504t-407 -203q-166 0 -256 97.5t-90 271.5zM285 324q0 -225 200 -226q170 0 265.5 172t95.5 420q0 115 -55.5 168t-143.5 53q-168 0 -265 -165.5t-97 -421.5zM350 1303q70 68 129 98.5 t133.5 30.5t135.5 -38t125.5 -38t154.5 80l39 -93q-70 -68 -130.5 -98.5t-135 -30.5t-135 38t-106 38t-75 -12t-46 -24.5t-50.5 -43.5z" />
<glyph unicode="&#xf6;" horiz-adv-x="1124" d="M109 334q0 303 161.5 505.5t405.5 202.5q172 0 259 -99t87 -271q0 -301 -160 -504t-407 -203q-166 0 -256 97.5t-90 271.5zM285 324q0 -225 200 -226q170 0 265.5 172t95.5 420q0 115 -55.5 168t-143.5 53q-168 0 -265 -165.5t-97 -421.5zM416 1271q0 44 30.5 74.5 t74.5 30.5t75 -30.5t31 -74.5t-30 -76t-75 -32t-75.5 32t-30.5 76zM838 1271q0 44 30.5 74.5t74.5 30.5t76 -30.5t32 -74.5t-31 -76t-75 -32t-75.5 32t-31.5 76z" />
<glyph unicode="&#xf7;" horiz-adv-x="1744" d="M-16 -354q92 127 133 340l176 905h-105l23 121h104l29 145q39 199 156 275q78 51 198.5 51t196.5 -51l-59 -121q-70 47 -152 47q-137 0 -176 -180l-31 -166h434l29 145q39 199 156 275q76 51 197.5 51t197.5 -51l-59 -121q-70 47 -152 47q-137 0 -176 -180l-31 -166h596 l-217 -1012h-170l191 891h-422l-183 -920q-51 -262 -157 -397l-131 72q92 127 133 340l176 905h-434l-183 -920q-51 -262 -157 -397zM1528 1334q0 52 37 89t88 37t88 -35.5t37 -89t-37 -89.5t-88 -36t-88 36t-37 88z" />
<glyph unicode="&#xf8;" horiz-adv-x="1124" d="M23 -74q16 20 39.5 50t64.5 77l39 49q-57 96 -57 232q0 303 161.5 505.5t405.5 202.5q125 0 209 -55l137 170l88 -61l-149 -185q61 -92 61 -239q0 -301 -160 -504t-407 -203q-131 0 -215 62l-134 -162zM283 324q0 -39 6 -70l495 610q-51 49 -137 49q-168 0 -266 -166.5 t-98 -422.5zM338 147q49 -51 147 -51q170 0 266.5 173t96.5 421q0 47 -8 74z" />
<glyph unicode="&#xf9;" horiz-adv-x="1097" d="M104 170q0 72 17 149l147 693l164 30l-143 -686q-40 -177 3 -228q23 -26 92 -26t171 68t180 192l137 648l164 26l-153 -723q-23 -117 -18 -158.5t44 -95.5l-125 -102q-88 86 -75 225q-182 -217 -393.5 -217t-211.5 205zM383 1362l88 158l422 -267l-53 -96z" />
<glyph unicode="&#xfa;" horiz-adv-x="1097" d="M104 170q0 72 17 149l147 693l164 30l-143 -686q-40 -177 3 -228q23 -26 92 -26t171 68t180 192l137 648l164 26l-153 -723q-23 -117 -18 -158.5t44 -95.5l-125 -102q-88 86 -75 225q-182 -217 -393.5 -217t-211.5 205zM572 1253l426 267l88 -158l-461 -205z" />
<glyph unicode="&#xfb;" horiz-adv-x="1097" d="M104 170q0 72 17 149l147 693l164 30l-143 -686q-40 -177 3 -228q23 -26 92 -26t171 68t180 192l137 648l164 26l-153 -723q-23 -117 -18 -158.5t44 -95.5l-125 -102q-88 86 -75 225q-182 -217 -393.5 -217t-211.5 205zM375 1239l404 277l295 -277l-74 -90l-246 174 l-315 -174z" />
<glyph unicode="&#xfc;" horiz-adv-x="1097" d="M104 170q0 72 17 149l147 693l164 30l-143 -686q-40 -177 3 -228q23 -26 92 -26t171 68t180 192l137 648l164 26l-153 -723q-23 -117 -18 -158.5t44 -95.5l-125 -102q-88 86 -75 225q-182 -217 -393.5 -217t-211.5 205zM403 1271q0 44 31 74.5t75 30.5t74.5 -30.5 t30.5 -74.5t-29.5 -76t-74.5 -32t-76 32t-31 76zM825 1271q0 44 31 74.5t75 30.5t75.5 -30.5t31.5 -74.5t-30.5 -76t-74.5 -32t-76 32t-32 76z" />
<glyph unicode="&#xff;" horiz-adv-x="948" d="M4 -311q86 8 168 82.5t143 228.5l-65 -8q4 156 -25 366l-84 650l168 34l70 -653l6 -254h4l453 883h184l-471 -862q-63 -117 -111 -207q-106 -203 -196 -275t-207 -94zM313 1271q0 44 31 74.5t75 30.5t74.5 -30.5t30.5 -74.5t-29.5 -76t-74.5 -32t-76 32t-31 76zM735 1271 q0 44 31 74.5t75 30.5t75.5 -30.5t31.5 -74.5t-30.5 -76t-74.5 -32t-76 32t-32 76z" />
<glyph unicode="&#x152;" horiz-adv-x="1732" d="M129 696q74 342 270 521q115 102 216.5 140t265.5 38h966l-51 -140h-575l-99 -454h482l-31 -146h-481l-109 -510h619l-31 -145l-901 -2q-174 0 -260 19.5t-168 88.5q-201 170 -113 590zM285.5 452.5q3.5 -108.5 54.5 -190.5q84 -127 237 -127t238 12l232 1090 q-111 14 -181 14t-141 -10q-143 -25 -231 -135q-127 -154 -177 -389q-35 -156 -31.5 -264.5z" />
<glyph unicode="&#x153;" horiz-adv-x="1728" d="M109 334q0 303 161.5 505.5t398 202.5t316.5 -178l41 41q152 143 336 144q141 0 217 -71t76 -195t-94 -212q-125 -117 -441 -116q-37 0 -127 4q-14 -66 -14 -129q0 -102 58.5 -160.5t148.5 -58.5t156.5 25.5t138.5 90.5l67 -98q-80 -82 -172 -117t-241 -35 q-201 0 -289 168q-158 -180 -391 -180q-166 0 -256 97.5t-90 271.5zM285 324q0 -225 200 -226q170 0 265.5 172t95.5 420q0 115 -55.5 168t-143.5 53q-168 0 -265 -165.5t-97 -421.5zM1020 580q29 -2 104 -2q236 0 318 77q51 55 51 121.5t-38 106t-128 39.5t-179 -93.5 t-128 -248.5z" />
<glyph unicode="&#x178;" horiz-adv-x="1099" d="M209 1405h199l151 -537q25 -80 39 -157q43 66 109 157l385 537h200l-639 -858l-116 -547h-175l119 557zM477 1599q0 44 31 74.5t75 30.5t74.5 -30.5t30.5 -74.5t-29.5 -76t-74.5 -32t-76 32t-31 76zM899 1599q0 44 31 74.5t75 30.5t75.5 -30.5t31.5 -74.5t-30.5 -76 t-74.5 -32t-76 32t-32 76z" />
<glyph unicode="&#x2c6;" horiz-adv-x="823" d="M221 1239l404 277l295 -277l-74 -90l-246 174l-315 -174z" />
<glyph unicode="&#x2dc;" horiz-adv-x="778" d="M203 1303q70 68 129 98.5t133.5 30.5t135.5 -38t125.5 -38t154.5 80l39 -93q-70 -68 -130.5 -98.5t-135 -30.5t-135 38t-106 38t-75 -12t-46 -24.5t-50.5 -43.5z" />
<glyph unicode="&#x2000;" horiz-adv-x="947" />
<glyph unicode="&#x2001;" horiz-adv-x="1895" />
<glyph unicode="&#x2002;" horiz-adv-x="947" />
<glyph unicode="&#x2003;" horiz-adv-x="1895" />
<glyph unicode="&#x2004;" horiz-adv-x="631" />
<glyph unicode="&#x2005;" horiz-adv-x="473" />
<glyph unicode="&#x2006;" horiz-adv-x="315" />
<glyph unicode="&#x2007;" horiz-adv-x="315" />
<glyph unicode="&#x2008;" horiz-adv-x="236" />
<glyph unicode="&#x2009;" horiz-adv-x="379" />
<glyph unicode="&#x200a;" horiz-adv-x="105" />
<glyph unicode="&#x2010;" horiz-adv-x="618" d="M115 469l32 156h392l-33 -156h-391z" />
<glyph unicode="&#x2011;" horiz-adv-x="618" d="M115 469l32 156h392l-33 -156h-391z" />
<glyph unicode="&#x2012;" horiz-adv-x="618" d="M115 469l32 156h392l-33 -156h-391z" />
<glyph unicode="&#x2013;" horiz-adv-x="985" d="M0 512l27 121h993l-27 -121h-993z" />
<glyph unicode="&#x2014;" horiz-adv-x="1964" d="M260 512l27 121h1458l-27 -121h-1458z" />
<glyph unicode="&#x2018;" horiz-adv-x="532" d="M231 1061q0 150 121 264q76 78 195 131l53 -90q-133 -59 -176 -182q45 0 76.5 -38t30.5 -97.5t-44 -100.5t-107 -41t-106.5 43t-42.5 111z" />
<glyph unicode="&#x2019;" horiz-adv-x="532" d="M203 971q133 59 176 182q-45 0 -77 38t-31 97.5t44 100.5t107.5 41t106.5 -43t42 -111q0 -150 -120 -264q-76 -78 -195 -131z" />
<glyph unicode="&#x201a;" horiz-adv-x="546" d="M-8 -203q133 59 176 183q-45 0 -77 37.5t-31 97t44 100.5t107.5 41t106.5 -43t42 -111q0 -150 -120 -264q-76 -78 -195 -131z" />
<glyph unicode="&#x201c;" horiz-adv-x="933" d="M231 1061q0 150 121 264q76 78 195 131l53 -90q-133 -59 -176 -182q45 0 76.5 -38t30.5 -97.5t-44 -100.5t-107 -41t-106.5 43t-42.5 111zM637 1061q0 150 121 264q76 78 194 131l54 -90q-133 -59 -177 -182q45 0 77 -38t31 -97.5t-44 -100.5t-107.5 -41t-106.5 43 t-42 111z" />
<glyph unicode="&#x201d;" horiz-adv-x="940" d="M203 971q133 59 176 182q-45 0 -77 38t-31 97.5t44 100.5t107.5 41t106.5 -43t42 -111q0 -150 -120 -264q-76 -78 -195 -131zM608 971q133 59 176 182q-45 0 -76.5 38t-30.5 97.5t44 100.5t107 41t106.5 -43t42.5 -111q0 -150 -121 -264q-76 -78 -194 -131z" />
<glyph unicode="&#x201e;" horiz-adv-x="944" d="M-8 -203q133 59 176 183q-45 0 -77 37.5t-31 97t44 100.5t107.5 41t106.5 -43t42 -111q0 -150 -120 -264q-76 -78 -195 -131zM397 -203q133 59 176 183q-45 0 -76.5 37.5t-30.5 97t44 100.5t107.5 41t106.5 -43t42 -111q0 -150 -121 -264q-76 -78 -194 -131z" />
<glyph unicode="&#x2022;" d="M201 725q0 152 106.5 257t256 105t256 -105t107.5 -256t-104.5 -257.5t-256.5 -106.5t-257 105.5t-108 257.5z" />
<glyph unicode="&#x2026;" horiz-adv-x="1449" d="M78 113.5q0 58.5 39 97.5t97 39t98 -39t40 -96.5t-41 -99.5t-97 -42t-96 41t-40 99.5zM549 113.5q0 58.5 39 97.5t97 39t98 -39t40 -96.5t-41 -99.5t-97 -42t-96 41t-40 99.5zM1020 113.5q0 58.5 39 97.5t97 39t98 -39t40 -96.5t-41 -99.5t-97 -42t-96 41t-40 99.5z" />
<glyph unicode="&#x202f;" horiz-adv-x="379" />
<glyph unicode="&#x2039;" horiz-adv-x="643" d="M100 500l408 430l110 -82l-354 -371l180 -356l-122 -68z" />
<glyph unicode="&#x203a;" horiz-adv-x="643" d="M31 135l354 371l-180 356l123 68l221 -447l-408 -430z" />
<glyph unicode="&#x205f;" horiz-adv-x="473" />
<glyph unicode="&#x2122;" horiz-adv-x="2027" d="M246 1315l28 135h668l-29 -135h-266l-151 -709h-136l152 709h-266zM932 606l180 844h215l115 -641l389 641h209l-180 -844h-136l152 709h-4l-430 -709h-92l-127 709h-4l-152 -709h-135z" />
<glyph unicode="&#xe000;" horiz-adv-x="1013" d="M0 0v1014h1014v-1014h-1014z" />
<glyph unicode="&#xfb01;" horiz-adv-x="1142" d="M-16 -354q92 127 133 340l176 905h-105l23 121h104l29 145q39 199 156 275q78 51 198.5 51t196.5 -51l-59 -121q-70 47 -152 47q-137 0 -176 -180l-31 -166h596l-217 -1012h-170l191 891h-422l-183 -920q-51 -262 -157 -397zM932 1334q0 52 37 89t89 37t88 -35.5t36 -89 t-36 -89.5t-88 -36t-89 36t-37 88z" />
<glyph unicode="&#xfb02;" horiz-adv-x="1142" d="M-16 -354q92 127 133 340l176 905h-105l23 121h104l29 145q39 199 156 275q78 51 198.5 51t196.5 -51l-59 -121q-70 47 -152 47q-137 0 -176 -180l-31 -166h283l-72 -121h-233l-183 -920q-51 -262 -157 -397zM725 100q0 33 10 88l201 949q41 193 8 307l170 65 q39 -121 -16 -372l-195 -912q-10 -47 -10 -73q0 -49 43 -50q29 0 39 4l10 -104q-53 -23 -125 -22q-135 0 -135 120z" />
</font>
</defs>
</svg>
